# Blender 4.3.2
# www.blender.org
mtllib road_straight_edit.mtl
o straight1-col.001
v 5.000000 0.250000 -8.513054
v 5.000000 -0.000000 -8.512728
v 5.000000 0.250000 9.700040
v 5.000000 0.000000 9.700040
v -5.000000 0.250000 -8.513054
v -5.000000 -0.000000 -8.512728
v -5.000000 0.250000 9.700040
v -5.000000 0.000000 9.700040
v -5.000000 -0.000000 -6.596061
v -5.000000 -0.000000 -5.899887
v -5.000000 0.000000 3.099589
v -5.000000 0.000000 7.091123
v -5.000000 0.000000 7.783373
v 5.000000 0.250000 -6.596061
v 5.000000 0.250000 -5.899887
v 5.000000 0.250000 3.099589
v 5.000000 0.250000 7.091123
v 5.000000 0.250000 7.783373
v -5.000000 0.250000 7.783373
v -5.000000 0.250000 7.091123
v -5.000000 0.250000 3.099589
v -5.000000 0.250000 -5.899887
v -5.000000 0.250000 -6.596061
v 5.000000 0.000000 7.783373
v 5.000000 0.000000 7.091123
v 5.000000 0.000000 3.099589
v 5.000000 -0.000000 -5.899887
v 5.000000 -0.000000 -6.596061
v 4.900000 0.450000 9.600040
v -4.900000 0.450000 9.600040
v 4.900000 0.450000 7.883373
v -4.900000 0.450000 -6.696060
v -4.900000 0.450000 -8.412727
v 4.900000 0.450000 -8.412727
v 4.900000 0.450000 -6.696060
v -4.900000 0.450000 7.883373
v 0.000000 -0.000000 -8.512728
v 0.000000 0.250000 9.692194
v 0.000000 0.000000 9.700040
v 0.000000 0.250000 -8.513054
v 0.000000 -0.000000 -6.596061
v 0.000000 -0.000000 -5.899887
v 0.000000 0.000000 3.099589
v 0.000000 0.000000 7.091123
v 0.000000 0.000000 7.783373
v 0.000000 0.250000 -6.596061
v 0.000000 0.250000 -5.899887
v 0.000000 0.250000 3.099589
v 0.000000 0.250000 7.091123
v 0.000000 0.250000 7.775527
v 0.100000 0.450000 9.600040
v -0.100000 0.450000 -8.412727
v -0.100000 0.450000 -6.696060
v 0.100000 0.450000 7.883373
v 2.500000 0.000000 9.700040
v 2.500000 0.250000 -8.513054
v 2.500000 0.250000 -6.596061
v 2.500000 0.250000 -5.899887
v 2.500000 0.250000 3.099589
v 2.500000 0.250000 7.091123
v 2.500000 0.250000 7.775527
v 2.600000 0.450000 -8.412727
v 2.600000 0.450000 -6.696060
v 2.400000 0.450000 7.883373
v 2.500000 -0.000000 -8.512728
v 2.500000 0.250000 9.692194
v 2.500000 -0.000000 -6.596061
v 2.500000 -0.000000 -5.899887
v 2.500000 0.000000 3.099589
v 2.500000 0.000000 7.091123
v 2.500000 0.000000 7.783373
v 2.400000 0.450000 9.600040
v -2.500000 -0.000000 -8.512728
v -2.500000 0.250000 9.700040
v -2.500000 -0.000000 -6.596061
v -2.500000 -0.000000 -5.899887
v -2.500000 0.000000 3.099589
v -2.500000 0.000000 7.091123
v -2.500000 0.000000 7.783373
v -2.600000 0.450000 9.600040
v -2.500000 0.000000 9.700040
v -2.500000 0.250000 -8.513054
v -2.500000 0.250000 -6.596061
v -2.500000 0.250000 -5.899887
v -2.500000 0.250000 3.099589
v -2.500000 0.250000 7.091123
v -2.500000 0.250000 7.775527
v -2.400000 0.450000 -8.412727
v -2.400000 0.450000 -6.696060
v -2.600000 0.450000 7.883373
v -2.400000 0.450000 9.600040
v -5.000000 0.400000 9.700040
v 2.400000 0.450000 -8.412727
v 5.000000 0.400000 -8.512728
v 5.000000 0.400000 -6.596061
v -5.000000 0.400000 7.783373
v 2.400000 0.450000 -6.696060
v 2.600000 0.450000 9.600040
v -0.100000 0.450000 9.600040
v -2.600000 0.450000 -8.412727
v 0.100000 0.450000 -8.412727
v -2.600000 0.450000 -6.696060
v 0.100000 0.450000 -6.696060
v -0.100000 0.450000 7.883373
v 2.600000 0.450000 7.883373
v -2.400000 0.450000 7.883373
v 5.000000 0.400000 7.783373
v 5.000000 0.400000 9.700040
v -5.000000 0.400000 -6.596061
v -5.000000 0.400000 -8.512728
v 2.500000 0.400000 7.783373
v -2.500000 0.400000 7.783373
v 0.000000 0.400000 7.783373
v 0.000000 0.400000 -8.512728
v 0.000000 0.400000 -6.596061
v 0.000000 0.400000 9.700040
v 2.500000 0.400000 -8.512728
v 2.500000 0.400000 -6.596061
v 2.500000 0.400000 9.700040
v -2.500000 0.400000 9.700040
v -2.500000 0.400000 -8.512728
v -2.500000 0.400000 -6.596061
v -2.500000 0.250000 -1.897726
v -5.000000 0.250000 -1.897726
v 2.500000 0.250000 -1.897726
v 0.000000 0.250000 -1.897726
v 5.000000 0.250000 -1.897726
v 5.000000 -0.000000 -1.897726
v 2.500000 -0.000000 -1.897726
v -5.000000 -0.000000 -1.897726
v -2.500000 -0.000000 -1.897726
v 0.000000 -0.000000 -1.897726
v -2.500000 0.250000 -1.401836
v 2.500000 0.250000 -1.401836
v 0.000000 0.250000 -1.401836
v 5.000000 0.250000 -1.401836
v 2.500000 -0.000000 -1.401836
v -5.000000 -0.000000 -1.401836
v -2.500000 -0.000000 -1.401836
v 0.000000 -0.000000 -1.401836
v -5.000000 0.250000 -1.401836
v 5.000000 -0.000000 -1.401836
v -2.500000 0.250000 2.598090
v 2.500000 0.250000 2.598090
v 0.000000 0.250000 2.598090
v 5.000000 0.250000 2.598090
v 2.500000 -0.000000 2.598090
v -5.000000 -0.000000 2.598090
v -2.500000 -0.000000 2.598090
v 0.000000 -0.000000 2.598090
v -5.000000 0.250000 2.598090
v 5.000000 -0.000000 2.598090
vn 1.0000 -0.0000 -0.0000
vn 0.0008 0.0078 1.0000
vn 0.0008 -0.0026 1.0000
vn -0.0000 -0.0000 1.0000
vn -1.0000 -0.0000 -0.0000
vn -0.0000 -1.0000 -0.0000
vn -0.0000 -0.0013 -1.0000
vn -0.0000 0.0004 -1.0000
vn -0.0008 0.0392 -0.9992
vn -0.0016 0.0261 -0.9997
vn -0.0000 1.0000 -0.0000
vn -0.0000 0.0022 -1.0000
vn -0.0008 -0.0078 1.0000
vn -0.0016 -0.0052 1.0000
vn -0.0016 -0.0261 0.9997
vn -0.0008 -0.0392 0.9992
vn 0.0008 -0.0078 1.0000
vn 0.0008 -0.0392 0.9992
vn 0.0008 -0.0131 0.9999
vn 0.0008 0.0392 -0.9992
vn -0.0000 0.0522 -0.9986
vn -0.0008 0.0235 0.9997
vn 0.0008 0.0235 0.9997
vn -0.0016 0.0157 0.9999
vn 0.0016 0.0261 -0.9997
vn -0.0000 0.8944 0.4472
vn -0.0000 0.8944 -0.4472
vn 0.4472 0.8944 -0.0000
vn -0.4472 0.8944 -0.0000
vt 0.625000 0.750000
vt 0.625000 0.708333
vt 0.375000 0.937500
vt 0.625000 0.937500
vt 0.625000 1.000000
vt 0.375000 1.000000
vt 0.375000 0.208333
vt 0.625000 0.208333
vt 0.625000 0.250000
vt 0.375000 0.250000
vt 0.312500 0.708333
vt 0.375000 0.708333
vt 0.375000 0.750000
vt 0.312500 0.750000
vt 0.375000 0.437500
vt 0.625000 0.437500
vt 0.625000 0.500000
vt 0.375000 0.500000
vt 0.625000 0.541667
vt 0.375000 0.541667
vt 0.312500 0.500000
vt 0.312500 0.541667
vt 0.375000 0.000000
vt 0.625000 0.000000
vt 0.625000 0.041667
vt 0.375000 0.041667
vt 0.812500 0.708333
vt 0.875000 0.708333
vt 0.815000 0.710833
vt 0.872500 0.710833
vt 0.872500 0.747500
vt 0.815000 0.747500
vt 0.815000 0.502500
vt 0.872500 0.502500
vt 0.872500 0.539167
vt 0.815000 0.539167
vt 0.687500 0.541667
vt 0.625000 0.312500
vt 0.625000 0.812500
vt 0.625000 0.875000
vt 0.625000 0.375000
vt 0.812500 0.541667
vt 0.750000 0.541667
vt 0.690000 0.502500
vt 0.747500 0.502500
vt 0.747500 0.539167
vt 0.690000 0.539167
vt 0.690000 0.710833
vt 0.747500 0.710833
vt 0.747500 0.747500
vt 0.690000 0.747500
vt 0.687500 0.708333
vt 0.750000 0.708333
vt 0.187500 0.500000
vt 0.250000 0.500000
vt 0.250000 0.541667
vt 0.187500 0.541667
vt 0.375000 0.312500
vt 0.375000 0.375000
vt 0.187500 0.708333
vt 0.250000 0.708333
vt 0.250000 0.750000
vt 0.187500 0.750000
vt 0.375000 0.812500
vt 0.375000 0.875000
vt 0.627500 0.710833
vt 0.685000 0.710833
vt 0.685000 0.747500
vt 0.627500 0.747500
vt 0.627500 0.502500
vt 0.685000 0.502500
vt 0.685000 0.539167
vt 0.627500 0.539167
vt 0.125000 0.708333
vt 0.125000 0.750000
vt 0.125000 0.500000
vt 0.125000 0.541667
vt 0.875000 0.541667
vt 0.752500 0.502500
vt 0.810000 0.502500
vt 0.810000 0.539167
vt 0.752500 0.539167
vt 0.752500 0.710833
vt 0.810000 0.710833
vt 0.810000 0.747500
vt 0.752500 0.747500
vt 0.875000 0.750000
vt 0.812500 0.750000
vt 0.687500 0.500000
vt 0.750000 0.750000
vt 0.687500 0.750000
vt 0.750000 0.500000
vt 0.812500 0.500000
vt 0.875000 0.500000
vt 0.499129 0.258525
vt 1.000375 0.257643
vt 1.000528 0.374181
vt 0.499282 0.375064
vt 0.748642 0.778969
vt 0.996894 0.778622
vt 0.997196 0.961796
vt 0.748945 0.962143
vt 0.252139 0.779663
vt 0.500391 0.779316
vt 0.500693 0.962490
vt 0.252442 0.962837
vt 0.499245 0.258304
vt 1.000491 0.257421
vt 1.000643 0.373960
vt 0.499398 0.374843
vt -0.002000 0.259187
vt -0.001847 0.375726
vt 0.003888 0.780011
vt 0.004190 0.963184
vt -0.002116 0.259408
vt -0.001963 0.375947
vt 0.625000 0.583333
vt 0.375000 0.583333
vt 0.375000 0.619792
vt 0.625000 0.619792
vt 0.625000 0.625000
vt 0.375000 0.625000
vt 0.625000 0.666667
vt 0.375000 0.666667
vt 0.312500 0.583333
vt 0.312500 0.619792
vt 0.312500 0.625000
vt 0.312500 0.666667
vt 0.625000 0.083333
vt 0.375000 0.083333
vt 0.625000 0.125000
vt 0.375000 0.125000
vt 0.375000 0.145833
vt 0.625000 0.145833
vt 0.625000 0.166667
vt 0.375000 0.166667
vt 0.187500 0.666667
vt 0.250000 0.666667
vt 0.187500 0.625000
vt 0.250000 0.625000
vt 0.187500 0.619792
vt 0.250000 0.619792
vt 0.250000 0.583333
vt 0.187500 0.583333
vt 0.125000 0.583333
vt 0.125000 0.619792
vt 0.125000 0.625000
vt 0.125000 0.666667
vt -0.181506 0.661432
vt -0.324081 0.661432
vt -0.324081 0.254851
vt -0.181506 0.254851
vt 0.388793 0.742748
vt 0.246219 0.742748
vt 0.246219 0.336167
vt 0.388793 0.336167
vt 0.673943 0.742748
vt 0.531368 0.742748
vt 0.531368 0.336167
vt 0.673943 0.336167
vt 0.103644 0.661432
vt -0.038931 0.661432
vt -0.038931 0.254851
vt 0.103644 0.254851
vt 0.246219 0.661432
vt 0.246219 0.254851
vt 0.816518 0.742748
vt 0.816518 0.336167
vt 0.187500 0.604167
vt 0.125000 0.604167
vt 0.312500 0.604167
vt 0.250000 0.604167
vt 0.375000 0.135417
vt 0.625000 0.135417
vt 0.375000 0.604166
vt 0.625000 0.604167
vt 0.499306 0.042834
vt 0.748114 0.042487
vt 0.748416 0.224784
vt 0.499608 0.225131
vt 0.001689 0.043528
vt 0.250497 0.043181
vt 0.250799 0.225479
vt 0.001991 0.225826
vt 0.996923 0.042139
vt 0.997225 0.224437
vt 0.375000 0.130208
vt 0.625000 0.130208
vt 0.187500 0.614583
vt 0.125000 0.614583
vt 0.312500 0.614583
vt 0.250000 0.614583
vt 0.375000 0.614583
vt 0.625000 0.614583
vt -0.002094 0.260214
vt 0.499151 0.259331
vt 0.499302 0.374567
vt -0.001943 0.375449
vt -0.002076 0.260245
vt 0.499169 0.259363
vt 0.499320 0.374598
vt -0.001925 0.375480
vt 1.000414 0.258480
vt 1.000565 0.373715
vt 1.000396 0.258449
vt 1.000548 0.373684
vt 0.499845 0.413315
vt 0.750962 0.412968
vt 0.751269 0.596226
vt 0.500151 0.596573
vt -0.002389 0.414009
vt 0.248728 0.413662
vt 0.249034 0.596920
vt -0.002083 0.597267
vt 1.002080 0.412620
vt 1.002386 0.595879
s 1
usemtl concrete.001
f 3/1/1 18/2/1 107/2/1 108/1/1
f 81/3/2 74/4/3 7/5/4 8/6/4
f 9/7/5 23/8/5 5/9/5 6/10/5
f 71/11/6 24/12/6 4/13/6 55/14/6
f 24/12/1 18/2/1 3/1/1 4/13/1
f 65/15/7 56/16/8 1/17/8 2/18/7
f 2/18/1 1/17/1 14/19/1 28/20/1
f 65/21/6 2/18/6 28/20/6 67/22/6
f 8/23/5 7/24/5 19/25/5 13/26/5
f 87/27/9 19/28/10 96/28/10 112/27/9
f 90/29/11 36/30/11 30/31/11 80/32/11
f 100/33/11 33/34/11 32/35/11 102/36/11
f 57/37/4 14/19/4 95/19/4 118/37/4
f 82/38/8 5/9/8 110/9/12 121/38/12
f 14/19/1 1/17/1 94/17/1 95/19/1
f 66/39/13 3/1/14 108/1/15 119/39/16
f 19/25/5 7/24/5 92/24/5 96/25/5
f 5/9/5 23/8/5 109/8/5 110/9/5
f 74/4/3 38/40/17 116/40/18 120/4/19
f 56/16/8 40/41/8 114/41/12 117/16/12
f 83/42/4 46/43/4 115/43/4 122/42/4
f 93/44/11 101/45/11 103/46/11 97/47/11
f 64/48/11 54/49/11 51/50/11 72/51/11
f 61/52/20 50/53/21 113/53/21 111/52/20
f 73/54/6 37/55/6 41/56/6 75/57/6
f 73/58/7 82/38/8 40/41/8 37/59/7
f 79/60/6 45/61/6 39/62/6 81/63/6
f 55/64/22 66/39/13 38/40/17 39/65/23
f 4/13/24 3/1/14 66/39/13 55/64/22
f 18/2/25 61/52/20 111/52/20 107/2/25
f 31/66/11 105/67/11 98/68/11 29/69/11
f 34/70/11 62/71/11 63/72/11 35/73/11
f 1/17/8 56/16/8 117/16/12 94/17/12
f 38/40/17 66/39/13 119/39/16 116/40/18
f 46/43/4 57/37/4 118/37/4 115/43/4
f 37/55/6 65/21/6 67/22/6 41/56/6
f 37/59/7 40/41/8 56/16/8 65/15/7
f 45/61/6 71/11/6 55/14/6 39/62/6
f 13/74/6 79/60/6 81/63/6 8/75/6
f 6/10/7 5/9/8 82/38/8 73/58/7
f 6/76/6 73/54/6 75/57/6 9/77/6
f 23/78/4 83/42/4 122/42/4 109/78/4
f 7/5/4 74/4/3 120/4/19 92/5/4
f 40/41/8 82/38/8 121/38/12 114/41/12
f 52/79/11 88/80/11 89/81/11 53/82/11
f 104/83/11 106/84/11 91/85/11 99/86/11
f 50/53/21 87/27/9 112/27/9 113/53/21
f 39/65/23 38/40/17 74/4/3 81/3/2
f 80/32/26 30/31/26 92/87/26 120/88/26
f 62/71/27 34/70/27 94/17/27 117/89/27
f 34/70/28 35/73/28 95/19/28 94/17/28
f 30/31/29 36/30/29 96/28/29 92/87/29
f 35/73/26 63/72/26 118/37/26 95/19/26
f 72/51/26 51/50/26 116/90/26 119/91/26
f 88/80/27 52/79/27 114/92/27 121/93/27
f 53/82/26 89/81/26 122/42/26 115/43/26
f 52/79/28 53/82/28 115/43/28 114/92/28
f 51/50/29 54/49/29 113/53/29 116/90/29
f 54/49/27 64/48/27 111/52/27 113/53/27
f 64/48/28 72/51/28 119/91/28 111/52/28
f 63/72/29 62/71/29 117/89/29 118/37/29
f 36/30/27 90/29/27 112/27/27 96/28/27
f 89/81/29 88/80/29 121/93/29 122/42/29
f 90/29/28 80/32/28 120/88/28 112/27/28
f 31/66/28 29/69/28 108/1/28 107/2/28
f 32/35/29 33/34/29 110/94/29 109/78/29
f 105/67/27 31/66/27 107/2/27 111/52/27
f 106/84/27 104/83/27 113/53/27 112/27/27
f 103/46/29 101/45/29 114/92/29 115/43/29
f 104/83/28 99/86/28 116/90/28 113/53/28
f 101/45/27 93/44/27 117/89/27 114/92/27
f 97/47/26 103/46/26 115/43/26 118/37/26
f 29/69/26 98/68/26 119/91/26 108/1/26
f 98/68/29 105/67/29 111/52/29 119/91/29
f 93/44/28 97/47/28 118/37/28 117/89/28
f 99/86/26 91/85/26 120/88/26 116/90/26
f 33/34/27 100/33/27 121/93/27 110/94/27
f 102/36/26 32/35/26 109/78/26 122/42/26
f 100/33/28 102/36/28 122/42/28 121/93/28
f 91/85/29 106/84/29 112/27/29 120/88/29
usemtl asphalt_ylw_dash.001
f 143/95/11 151/96/11 21/97/11 85/98/11
f 85/99/11 21/100/11 20/101/11 86/102/11
f 59/103/11 48/104/11 49/105/11 60/106/11
f 144/107/11 145/108/11 48/109/11 59/110/11
f 146/111/11 144/107/11 59/110/11 16/112/11
f 16/113/11 59/103/11 60/106/11 17/114/11
f 48/104/11 85/99/11 86/102/11 49/105/11
f 145/115/11 143/95/11 85/98/11 48/116/11
f 47/177/11 84/178/11 123/179/11 126/180/11
f 15/181/11 58/182/11 125/183/11 127/184/11
f 58/182/11 47/177/11 126/180/11 125/183/11
f 84/178/11 22/185/11 124/186/11 123/179/11
f 126/195/11 123/196/11 133/197/11 135/198/11
f 127/199/11 125/200/11 134/201/11 136/202/11
f 125/200/11 126/203/11 135/204/11 134/201/11
f 123/196/11 124/205/11 141/206/11 133/197/11
f 135/207/11 133/208/11 143/209/11 145/210/11
f 136/211/11 134/212/11 144/213/11 146/214/11
f 134/212/11 135/207/11 145/210/11 144/213/11
f 133/208/11 141/215/11 151/216/11 143/209/11
usemtl asphalt_blank.001
f 28/20/1 14/19/1 15/117/1 27/118/1
f 152/119/1 146/120/1 16/121/1 26/122/1
f 26/122/1 16/121/1 17/123/1 25/124/1
f 25/124/1 17/123/1 18/2/1 24/12/1
f 67/22/6 28/20/6 27/118/6 68/125/6
f 147/126/6 152/119/6 26/122/6 69/127/6
f 69/127/6 26/122/6 25/124/6 70/128/6
f 70/128/6 25/124/6 24/12/6 71/11/6
f 13/26/5 19/25/5 20/129/5 12/130/5
f 12/130/5 20/129/5 21/131/5 11/132/5
f 130/133/5 124/134/5 22/135/5 10/136/5
f 10/136/5 22/135/5 23/8/5 9/7/5
f 78/137/6 44/138/6 45/61/6 79/60/6
f 77/139/6 43/140/6 44/138/6 78/137/6
f 149/141/6 150/142/6 43/140/6 77/139/6
f 75/57/6 41/56/6 42/143/6 76/144/6
f 44/138/6 70/128/6 71/11/6 45/61/6
f 43/140/6 69/127/6 70/128/6 44/138/6
f 150/142/6 147/126/6 69/127/6 43/140/6
f 41/56/6 67/22/6 68/125/6 42/143/6
f 9/77/6 75/57/6 76/144/6 10/145/6
f 148/146/6 149/141/6 77/139/6 11/147/6
f 11/147/6 77/139/6 78/137/6 12/148/6
f 12/148/6 78/137/6 79/60/6 13/74/6
f 10/145/6 76/144/6 131/169/6 130/170/6
f 42/143/6 68/125/6 129/171/6 132/172/6
f 76/144/6 42/143/6 132/172/6 131/169/6
f 138/173/5 141/174/5 124/134/5 130/133/5
f 68/125/6 27/118/6 128/175/6 129/171/6
f 27/118/1 15/117/1 127/176/1 128/175/1
f 148/187/5 151/188/5 141/174/5 138/173/5
f 130/170/6 131/169/6 139/189/6 138/190/6
f 132/172/6 129/171/6 137/191/6 140/192/6
f 131/169/6 132/172/6 140/192/6 139/189/6
f 129/171/6 128/175/6 142/193/6 137/191/6
f 128/175/1 127/176/1 136/194/1 142/193/1
f 11/132/5 21/131/5 151/188/5 148/187/5
f 138/190/6 139/189/6 149/141/6 148/146/6
f 140/192/6 137/191/6 147/126/6 150/142/6
f 139/189/6 140/192/6 150/142/6 149/141/6
f 137/191/6 142/193/6 152/119/6 147/126/6
f 142/193/1 136/194/1 146/120/1 152/119/1
usemtl asphalt_top_side.001
f 83/149/11 23/150/11 22/151/11 84/152/11
f 86/153/11 20/154/11 19/155/11 87/156/11
f 60/157/11 49/158/11 50/159/11 61/160/11
f 57/161/11 46/162/11 47/163/11 58/164/11
f 14/165/11 57/161/11 58/164/11 15/166/11
f 17/167/11 60/157/11 61/160/11 18/168/11
f 49/158/11 86/153/11 87/156/11 50/159/11
f 46/162/11 83/149/11 84/152/11 47/163/11
