# Blender 4.3.2
# www.blender.org
mtllib road_straight_edit.mtl
o straight1-col.001
v 5.000000 0.250000 -6.436551
v 5.000000 -0.000000 -6.436551
v 5.000000 0.250000 6.552173
v 5.000000 0.000000 6.552173
v -5.000000 0.250000 -6.436551
v -5.000000 -0.000000 -6.436551
v -5.000000 0.250000 6.552173
v -5.000000 0.000000 6.552173
v -5.000000 -0.000000 -4.519884
v -5.000000 -0.000000 -3.443162
v -5.000000 0.000000 1.552173
v -5.000000 0.000000 3.558784
v -5.000000 0.000000 4.635506
v 5.000000 0.250000 -4.519884
v 5.000000 0.250000 -3.443162
v 5.000000 0.250000 1.552173
v 5.000000 0.250000 3.558784
v 5.000000 0.250000 4.635506
v -5.000000 0.250000 4.635506
v -5.000000 0.250000 3.558784
v -5.000000 0.250000 1.552173
v -5.000000 0.250000 -3.443162
v -5.000000 0.250000 -4.519884
v 5.000000 0.000000 4.635506
v 5.000000 0.000000 3.558784
v 5.000000 0.000000 1.552173
v 5.000000 -0.000000 -3.443162
v 5.000000 -0.000000 -4.519884
v 4.900000 0.450000 6.452173
v -4.900000 0.450000 6.452173
v 4.900000 0.450000 4.735506
v -4.900000 0.450000 -4.619884
v -4.900000 0.450000 -6.336551
v 4.900000 0.450000 -6.336551
v 4.900000 0.450000 -4.619884
v -4.900000 0.450000 4.735506
v 0.000000 -0.000000 -6.436551
v 0.000000 0.250000 6.552173
v 0.000000 0.000000 6.552173
v 0.000000 0.250000 -6.436551
v 0.000000 -0.000000 -4.519884
v 0.000000 -0.000000 -3.443162
v 0.000000 0.000000 1.552173
v 0.000000 0.000000 3.558784
v 0.000000 0.000000 4.635506
v 0.000000 0.250000 -4.519884
v 0.000000 0.250000 -3.443162
v 0.000000 0.250000 1.552173
v 0.000000 0.250000 3.558784
v 0.000000 0.250000 4.635506
v 0.100000 0.450000 6.452173
v -0.100000 0.450000 -6.336551
v -0.100000 0.450000 -4.619884
v 0.100000 0.450000 4.735506
v 2.500000 0.000000 6.552173
v 2.500000 0.250000 -6.436551
v 2.500000 0.250000 -4.519884
v 2.500000 0.250000 -3.443162
v 2.500000 0.250000 1.552173
v 2.500000 0.250000 3.558784
v 2.500000 0.250000 4.635506
v 2.600000 0.450000 -6.336551
v 2.600000 0.450000 -4.619884
v 2.400000 0.450000 4.735506
v 2.500000 -0.000000 -6.436551
v 2.500000 0.250000 6.552173
v 2.500000 -0.000000 -4.519884
v 2.500000 -0.000000 -3.443162
v 2.500000 0.000000 1.552173
v 2.500000 0.000000 3.558784
v 2.500000 0.000000 4.635506
v 2.400000 0.450000 6.452173
v -2.500000 -0.000000 -6.436551
v -2.500000 0.250000 6.552173
v -2.500000 -0.000000 -4.519884
v -2.500000 -0.000000 -3.443162
v -2.500000 0.000000 1.552173
v -2.500000 0.000000 3.558784
v -2.500000 0.000000 4.635506
v -2.600000 0.450000 6.452173
v -2.500000 0.000000 6.552173
v -2.500000 0.250000 -6.436551
v -2.500000 0.250000 -4.519884
v -2.500000 0.250000 -3.443162
v -2.500000 0.250000 1.552173
v -2.500000 0.250000 3.558784
v -2.500000 0.250000 4.635506
v -2.400000 0.450000 -6.336551
v -2.400000 0.450000 -4.619884
v -2.600000 0.450000 4.735506
v -2.400000 0.450000 6.452173
v -5.000000 0.400000 6.552173
v 2.400000 0.450000 -6.336551
v 5.000000 0.400000 -6.436551
v 5.000000 0.400000 -4.519884
v -5.000000 0.400000 4.635506
v 2.400000 0.450000 -4.619884
v 2.600000 0.450000 6.452173
v -0.100000 0.450000 6.452173
v -2.600000 0.450000 -6.336551
v 0.100000 0.450000 -6.336551
v -2.600000 0.450000 -4.619884
v 0.100000 0.450000 -4.619884
v -0.100000 0.450000 4.735506
v 2.600000 0.450000 4.735506
v -2.400000 0.450000 4.735506
v 5.000000 0.400000 4.635506
v 5.000000 0.400000 6.552173
v -5.000000 0.400000 -4.519884
v -5.000000 0.400000 -6.436551
v 2.500000 0.400000 4.635506
v -2.500000 0.400000 4.635506
v 0.000000 0.400000 4.635506
v 0.000000 0.400000 -6.436551
v 0.000000 0.400000 -4.519884
v 0.000000 0.400000 6.552173
v 2.500000 0.400000 -6.436551
v 2.500000 0.400000 -4.519884
v 2.500000 0.400000 6.552173
v -2.500000 0.400000 6.552173
v -2.500000 0.400000 -6.436551
v -2.500000 0.400000 -4.519884
v -2.500000 0.250000 -1.570833
v -5.000000 0.250000 -1.570833
v 2.500000 0.250000 -1.570833
v 0.000000 0.250000 -1.570833
v 5.000000 0.250000 -1.570833
v 5.000000 -0.000000 -1.570833
v 2.500000 -0.000000 -1.570833
v -5.000000 -0.000000 -1.570833
v -2.500000 -0.000000 -1.570833
v 0.000000 -0.000000 -1.570833
v -2.500000 0.250000 -0.438506
v 2.500000 0.250000 -0.438506
v 0.000000 0.250000 -0.438506
v 5.000000 0.250000 -0.438506
v 2.500000 -0.000000 -0.438506
v -5.000000 -0.000000 -0.438506
v -2.500000 -0.000000 -0.438506
v 0.000000 -0.000000 -0.438506
v -5.000000 0.250000 -0.438506
v 5.000000 -0.000000 -0.438506
vn 1.0000 -0.0000 -0.0000
vn -0.0000 -0.0000 1.0000
vn -1.0000 -0.0000 -0.0000
vn -0.0000 -1.0000 -0.0000
vn -0.0000 -0.0000 -1.0000
vn -0.0000 1.0000 -0.0000
vn -0.0000 0.8944 0.4472
vn -0.0000 0.8944 -0.4472
vn 0.4472 0.8944 -0.0000
vn -0.4472 0.8944 -0.0000
vt 0.625000 0.750000
vt 0.625000 0.708333
vt 0.375000 0.937500
vt 0.625000 0.937500
vt 0.625000 1.000000
vt 0.375000 1.000000
vt 0.375000 0.208333
vt 0.625000 0.208333
vt 0.625000 0.250000
vt 0.375000 0.250000
vt 0.312500 0.708333
vt 0.375000 0.708333
vt 0.375000 0.750000
vt 0.312500 0.750000
vt 0.375000 0.437500
vt 0.625000 0.437500
vt 0.625000 0.500000
vt 0.375000 0.500000
vt 0.625000 0.541667
vt 0.375000 0.541667
vt 0.312500 0.500000
vt 0.312500 0.541667
vt 0.375000 0.000000
vt 0.625000 0.000000
vt 0.625000 0.041667
vt 0.375000 0.041667
vt 0.812500 0.708333
vt 0.875000 0.708333
vt 0.815000 0.710833
vt 0.872500 0.710833
vt 0.872500 0.747500
vt 0.815000 0.747500
vt 0.815000 0.502500
vt 0.872500 0.502500
vt 0.872500 0.539167
vt 0.815000 0.539167
vt 0.687500 0.541667
vt 0.625000 0.312500
vt 0.625000 0.812500
vt 0.625000 0.875000
vt 0.625000 0.375000
vt 0.812500 0.541667
vt 0.750000 0.541667
vt 0.690000 0.502500
vt 0.747500 0.502500
vt 0.747500 0.539167
vt 0.690000 0.539167
vt 0.690000 0.710833
vt 0.747500 0.710833
vt 0.747500 0.747500
vt 0.690000 0.747500
vt 0.687500 0.708333
vt 0.750000 0.708333
vt 0.187500 0.500000
vt 0.250000 0.500000
vt 0.250000 0.541667
vt 0.187500 0.541667
vt 0.375000 0.312500
vt 0.375000 0.375000
vt 0.187500 0.708333
vt 0.250000 0.708333
vt 0.250000 0.750000
vt 0.187500 0.750000
vt 0.375000 0.812500
vt 0.375000 0.875000
vt 0.627500 0.710833
vt 0.685000 0.710833
vt 0.685000 0.747500
vt 0.627500 0.747500
vt 0.627500 0.502500
vt 0.685000 0.502500
vt 0.685000 0.539167
vt 0.627500 0.539167
vt 0.125000 0.708333
vt 0.125000 0.750000
vt 0.125000 0.500000
vt 0.125000 0.541667
vt 0.875000 0.541667
vt 0.752500 0.502500
vt 0.810000 0.502500
vt 0.810000 0.539167
vt 0.752500 0.539167
vt 0.752500 0.710833
vt 0.810000 0.710833
vt 0.810000 0.747500
vt 0.752500 0.747500
vt 0.875000 0.750000
vt 0.812500 0.750000
vt 0.687500 0.500000
vt 0.750000 0.750000
vt 0.687500 0.750000
vt 0.750000 0.500000
vt 0.812500 0.500000
vt 0.875000 0.500000
vt 0.500000 0.281250
vt 1.125000 0.281250
vt 1.125000 0.500000
vt 0.500000 0.500000
vt 1.125000 1.375000
vt 0.500000 1.375000
vt -0.125000 0.281250
vt -0.125000 0.500000
vt -0.125000 1.375000
vt 0.625000 0.583333
vt 0.375000 0.583333
vt 0.375000 0.614583
vt 0.625000 0.614583
vt 0.625000 0.625000
vt 0.375000 0.625000
vt 0.625000 0.666667
vt 0.375000 0.666667
vt 0.312500 0.583333
vt 0.312500 0.614583
vt 0.312500 0.625000
vt 0.312500 0.666667
vt 0.625000 0.083333
vt 0.375000 0.083333
vt 0.625000 0.125000
vt 0.375000 0.125000
vt 0.375000 0.145833
vt 0.625000 0.145833
vt 0.625000 0.166667
vt 0.375000 0.166667
vt 0.187500 0.666667
vt 0.250000 0.666667
vt 0.187500 0.625000
vt 0.250000 0.625000
vt 0.187500 0.614583
vt 0.250000 0.614583
vt 0.250000 0.583333
vt 0.187500 0.583333
vt 0.125000 0.583333
vt 0.125000 0.614583
vt 0.125000 0.625000
vt 0.125000 0.666667
vt -0.750000 0.750000
vt -1.000000 0.750000
vt -1.000000 0.125000
vt -0.750000 0.125000
vt 0.250000 0.875000
vt 0.000000 0.875000
vt 0.000000 0.250000
vt 0.250000 0.250000
vt 0.750000 0.875000
vt 0.500000 0.875000
vt 0.500000 0.250000
vt 0.750000 0.250000
vt -0.250000 0.750000
vt -0.500000 0.750000
vt -0.500000 0.125000
vt -0.250000 0.125000
vt 0.000000 0.750000
vt 0.000000 0.125000
vt 1.000000 0.875000
vt 1.000000 0.250000
vt 0.187500 0.604167
vt 0.125000 0.604167
vt 0.312500 0.604167
vt 0.250000 0.604167
vt 0.375000 0.135417
vt 0.625000 0.135417
vt 0.375000 0.604166
vt 0.625000 0.604167
vt -0.125000 -0.375000
vt 0.500000 -0.375000
vt 0.500000 0.062500
vt -0.125000 0.062500
vt 1.125000 -0.375000
vt 1.125000 0.062500
s 1
usemtl concrete.001
f 3/1/1 18/2/1 107/2/1 108/1/1
f 81/3/2 74/4/2 7/5/2 8/6/2
f 9/7/3 23/8/3 5/9/3 6/10/3
f 71/11/4 24/12/4 4/13/4 55/14/4
f 24/12/1 18/2/1 3/1/1 4/13/1
f 65/15/5 56/16/5 1/17/5 2/18/5
f 2/18/1 1/17/1 14/19/1 28/20/1
f 65/21/4 2/18/4 28/20/4 67/22/4
f 8/23/3 7/24/3 19/25/3 13/26/3
f 87/27/5 19/28/5 96/28/5 112/27/5
f 90/29/6 36/30/6 30/31/6 80/32/6
f 100/33/6 33/34/6 32/35/6 102/36/6
f 57/37/2 14/19/2 95/19/2 118/37/2
f 82/38/5 5/9/5 110/9/5 121/38/5
f 14/19/1 1/17/1 94/17/1 95/19/1
f 66/39/2 3/1/2 108/1/2 119/39/2
f 19/25/3 7/24/3 92/24/3 96/25/3
f 5/9/3 23/8/3 109/8/3 110/9/3
f 74/4/2 38/40/2 116/40/2 120/4/2
f 56/16/5 40/41/5 114/41/5 117/16/5
f 83/42/2 46/43/2 115/43/2 122/42/2
f 93/44/6 101/45/6 103/46/6 97/47/6
f 64/48/6 54/49/6 51/50/6 72/51/6
f 61/52/5 50/53/5 113/53/5 111/52/5
f 73/54/4 37/55/4 41/56/4 75/57/4
f 73/58/5 82/38/5 40/41/5 37/59/5
f 79/60/4 45/61/4 39/62/4 81/63/4
f 55/64/2 66/39/2 38/40/2 39/65/2
f 4/13/2 3/1/2 66/39/2 55/64/2
f 18/2/5 61/52/5 111/52/5 107/2/5
f 31/66/6 105/67/6 98/68/6 29/69/6
f 34/70/6 62/71/6 63/72/6 35/73/6
f 1/17/5 56/16/5 117/16/5 94/17/5
f 38/40/2 66/39/2 119/39/2 116/40/2
f 46/43/2 57/37/2 118/37/2 115/43/2
f 37/55/4 65/21/4 67/22/4 41/56/4
f 37/59/5 40/41/5 56/16/5 65/15/5
f 45/61/4 71/11/4 55/14/4 39/62/4
f 13/74/4 79/60/4 81/63/4 8/75/4
f 6/10/5 5/9/5 82/38/5 73/58/5
f 6/76/4 73/54/4 75/57/4 9/77/4
f 23/78/2 83/42/2 122/42/2 109/78/2
f 7/5/2 74/4/2 120/4/2 92/5/2
f 40/41/5 82/38/5 121/38/5 114/41/5
f 52/79/6 88/80/6 89/81/6 53/82/6
f 104/83/6 106/84/6 91/85/6 99/86/6
f 50/53/5 87/27/5 112/27/5 113/53/5
f 39/65/2 38/40/2 74/4/2 81/3/2
f 80/32/7 30/31/7 92/87/7 120/88/7
f 62/71/8 34/70/8 94/17/8 117/89/8
f 34/70/9 35/73/9 95/19/9 94/17/9
f 30/31/10 36/30/10 96/28/10 92/87/10
f 35/73/7 63/72/7 118/37/7 95/19/7
f 72/51/7 51/50/7 116/90/7 119/91/7
f 88/80/8 52/79/8 114/92/8 121/93/8
f 53/82/7 89/81/7 122/42/7 115/43/7
f 52/79/9 53/82/9 115/43/9 114/92/9
f 51/50/10 54/49/10 113/53/10 116/90/10
f 54/49/8 64/48/8 111/52/8 113/53/8
f 64/48/9 72/51/9 119/91/9 111/52/9
f 63/72/10 62/71/10 117/89/10 118/37/10
f 36/30/8 90/29/8 112/27/8 96/28/8
f 89/81/10 88/80/10 121/93/10 122/42/10
f 90/29/9 80/32/9 120/88/9 112/27/9
f 31/66/9 29/69/9 108/1/9 107/2/9
f 32/35/10 33/34/10 110/94/10 109/78/10
f 105/67/8 31/66/8 107/2/8 111/52/8
f 106/84/8 104/83/8 113/53/8 112/27/8
f 103/46/10 101/45/10 114/92/10 115/43/10
f 104/83/9 99/86/9 116/90/9 113/53/9
f 101/45/8 93/44/8 117/89/8 114/92/8
f 97/47/7 103/46/7 115/43/7 118/37/7
f 29/69/7 98/68/7 119/91/7 108/1/7
f 98/68/10 105/67/10 111/52/10 119/91/10
f 93/44/9 97/47/9 118/37/9 117/89/9
f 99/86/7 91/85/7 120/88/7 116/90/7
f 33/34/8 100/33/8 121/93/8 110/94/8
f 102/36/7 32/35/7 109/78/7 122/42/7
f 100/33/9 102/36/9 122/42/9 121/93/9
f 91/85/10 106/84/10 112/27/10 120/88/10
usemtl asphalt_ylw_dash.001
f 133/95/6 141/96/6 21/97/6 85/98/6
f 85/98/6 21/97/6 20/99/6 86/100/6
f 59/98/6 48/97/6 49/99/6 60/100/6
f 134/95/6 135/96/6 48/97/6 59/98/6
f 136/101/6 134/95/6 59/98/6 16/102/6
f 16/102/6 59/98/6 60/100/6 17/103/6
f 48/102/6 85/98/6 86/100/6 49/103/6
f 135/101/6 133/95/6 85/98/6 48/102/6
f 47/164/6 84/165/6 123/166/6 126/167/6
f 15/164/6 58/165/6 125/166/6 127/167/6
f 58/165/6 47/168/6 126/169/6 125/166/6
f 84/165/6 22/168/6 124/169/6 123/166/6
f 126/167/6 123/166/6 133/95/6 135/101/6
f 127/167/6 125/166/6 134/95/6 136/101/6
f 125/166/6 126/169/6 135/96/6 134/95/6
f 123/166/6 124/169/6 141/96/6 133/95/6
usemtl asphalt_blank.001
f 28/20/1 14/19/1 15/104/1 27/105/1
f 142/106/1 136/107/1 16/108/1 26/109/1
f 26/109/1 16/108/1 17/110/1 25/111/1
f 25/111/1 17/110/1 18/2/1 24/12/1
f 67/22/4 28/20/4 27/105/4 68/112/4
f 137/113/4 142/106/4 26/109/4 69/114/4
f 69/114/4 26/109/4 25/111/4 70/115/4
f 70/115/4 25/111/4 24/12/4 71/11/4
f 13/26/3 19/25/3 20/116/3 12/117/3
f 12/117/3 20/116/3 21/118/3 11/119/3
f 130/120/3 124/121/3 22/122/3 10/123/3
f 10/123/3 22/122/3 23/8/3 9/7/3
f 78/124/4 44/125/4 45/61/4 79/60/4
f 77/126/4 43/127/4 44/125/4 78/124/4
f 139/128/4 140/129/4 43/127/4 77/126/4
f 75/57/4 41/56/4 42/130/4 76/131/4
f 44/125/4 70/115/4 71/11/4 45/61/4
f 43/127/4 69/114/4 70/115/4 44/125/4
f 140/129/4 137/113/4 69/114/4 43/127/4
f 41/56/4 67/22/4 68/112/4 42/130/4
f 9/77/4 75/57/4 76/131/4 10/132/4
f 138/133/4 139/128/4 77/126/4 11/134/4
f 11/134/4 77/126/4 78/124/4 12/135/4
f 12/135/4 78/124/4 79/60/4 13/74/4
f 10/132/4 76/131/4 131/156/4 130/157/4
f 42/130/4 68/112/4 129/158/4 132/159/4
f 76/131/4 42/130/4 132/159/4 131/156/4
f 138/160/3 141/161/3 124/121/3 130/120/3
f 68/112/4 27/105/4 128/162/4 129/158/4
f 27/105/1 15/104/1 127/163/1 128/162/1
f 11/119/3 21/118/3 141/161/3 138/160/3
f 130/157/4 131/156/4 139/128/4 138/133/4
f 132/159/4 129/158/4 137/113/4 140/129/4
f 131/156/4 132/159/4 140/129/4 139/128/4
f 129/158/4 128/162/4 142/106/4 137/113/4
f 128/162/1 127/163/1 136/107/1 142/106/1
usemtl asphalt_top_side.001
f 83/136/6 23/137/6 22/138/6 84/139/6
f 86/140/6 20/141/6 19/142/6 87/143/6
f 60/144/6 49/145/6 50/146/6 61/147/6
f 57/148/6 46/149/6 47/150/6 58/151/6
f 14/152/6 57/148/6 58/151/6 15/153/6
f 17/154/6 60/144/6 61/147/6 18/155/6
f 49/145/6 86/140/6 87/143/6 50/146/6
f 46/149/6 83/136/6 84/139/6 47/150/6
