# Blender 4.3.2
# www.blender.org
mtllib road_corner_edit.mtl
o base_street
v 4.964173 0.254028 -3.177035
v 4.964173 0.254029 9.590567
v 4.964173 0.000001 9.590567
v 4.964173 0.254028 0.474170
v 4.964173 0.254029 4.125375
v 4.964173 0.254029 6.084565
v 4.964173 0.000000 6.084565
v 4.964173 0.000000 4.125375
v 4.964173 0.000000 0.474170
v 4.964173 -0.000000 -3.177035
v 4.964173 -0.000000 -5.136226
v -10.793929 0.000000 0.474170
v 0.247162 0.254028 -5.900401
v -2.914878 0.254028 -4.074800
v -6.076916 0.254028 -2.249198
v -7.773626 0.254028 -1.269601
v -7.773624 -0.000000 -1.269601
v -6.076916 -0.000000 -2.249198
v -2.914878 -0.000000 -4.074800
v 0.247162 -0.000000 -5.900403
v -10.793929 0.254028 0.474170
v -7.902264 0.254029 4.242660
v 0.254729 0.254029 8.952099
v 1.112749 -0.000000 -4.772346
v -1.469045 -0.000000 -2.190555
v -4.050838 -0.000000 0.391236
v -5.436195 0.000000 1.776592
v -5.436197 0.254029 1.776594
v -4.050838 0.254028 0.391236
v -1.469045 0.254028 -2.190555
v 1.112749 0.254028 -4.772346
v -7.902264 0.000000 4.242660
v -4.133771 0.000001 7.134323
v 2.240805 0.254028 -3.906759
v 0.415201 0.254028 -0.744723
v -1.410402 0.254029 2.417313
v -2.389999 0.254029 4.114022
v -2.389997 0.000000 4.114020
v -1.410402 0.000000 2.417313
v 0.415201 -0.000000 -0.744723
v 2.240805 -0.000000 -3.906759
v 4.964173 -0.000001 -8.623770
v 4.964173 0.254028 -8.623770
v -4.133771 0.254029 7.134323
v 3.554454 -0.000000 -3.362628
v 2.609452 -0.000000 0.164165
v 1.664451 0.000000 3.690957
v 1.157375 0.000000 5.583390
v 1.157373 0.254029 5.583392
v 1.664451 0.254029 3.690957
v 2.609452 0.254028 0.164165
v 4.964173 0.254028 -5.136226
v 3.554454 0.254028 -3.362628
v 0.254729 0.000001 8.952099
v 4.061530 0.254028 -5.255061
v 2.498106 0.254028 -6.157704
v -0.296970 0.254028 -7.214051
v 1.595463 0.254028 -7.721128
v -0.482564 0.254028 -8.623770
v 1.476627 0.254028 -8.623770
v 4.964173 0.254028 -6.879998
v 4.964173 -0.000001 -6.879998
v 1.476627 -0.000001 -8.623770
v -12.611706 -0.000000 -3.914330
v -3.823766 0.254028 -6.269050
v -7.350561 0.254028 -5.324049
v -9.242994 0.254028 -4.816973
v -9.242993 -0.000000 -4.816972
v -7.350561 -0.000000 -5.324049
v -3.823766 -0.000001 -6.269050
v -0.296970 -0.000001 -7.214051
v -12.611706 0.254028 -3.914330
v -13.231716 -0.000001 -8.623770
v -4.133771 0.254028 -8.623770
v -7.784976 0.254028 -8.623770
v -9.744169 0.254028 -8.623770
v -9.744168 -0.000001 -8.623770
v -7.784976 -0.000001 -8.623770
v -4.133771 -0.000001 -8.623770
v -0.482564 -0.000001 -8.623770
v -13.231716 0.254028 -8.623770
v 3.220401 0.254028 -5.603468
v 1.943870 0.254028 -6.879998
v 2.609751 0.000001 9.262144
v 2.609751 0.254029 9.262144
v 3.061017 0.000000 5.834010
v 3.061016 0.254029 5.834011
v 4.512908 0.254028 -5.195636
v 3.786963 0.254028 0.319187
v 4.259404 0.254028 -3.269820
v 3.786963 -0.000000 0.319187
v 3.314523 0.000000 3.908194
v 3.314523 0.254029 3.908194
v 4.259404 -0.000000 -3.269820
v -0.616311 0.000000 4.848705
v -1.939521 0.000001 8.043210
v -1.939521 0.254029 8.043210
v -0.616313 0.254029 4.848707
v 3.640965 0.254028 -5.429265
v 0.127025 0.000000 3.054135
v 1.512326 -0.000000 -0.290279
v 2.897630 -0.000000 -3.634694
v 0.127025 0.254029 3.054135
v 2.897630 0.254028 -3.634694
v 1.512326 0.254028 -0.290279
v -6.018018 0.254029 5.688492
v -3.913096 0.000000 2.945306
v -6.018018 0.000000 5.688492
v -3.913098 0.254029 2.945308
v 2.859253 0.254028 -5.880586
v -2.730620 0.000000 1.404275
v 1.676777 -0.000000 -4.339553
v -0.526922 -0.000000 -1.467639
v -2.730620 0.254028 1.404275
v 1.676777 0.254028 -4.339553
v -0.526922 0.254028 -1.467639
v -9.348097 0.000000 2.358415
v -9.348097 0.254029 2.358415
v -6.604911 0.254028 0.253496
v -6.604910 -0.000000 0.253496
v 2.220988 0.254028 -6.518851
v -5.063877 -0.000000 -0.928981
v 0.679955 -0.000000 -5.336374
v -2.191962 -0.000000 -3.132678
v -5.063877 0.254028 -0.928981
v 0.679955 0.254028 -5.336373
v -2.191962 0.254028 -3.132678
v -8.508308 -0.000000 -3.043287
v -11.702817 -0.000000 -1.720080
v -11.702817 0.254028 -1.720080
v -8.508310 0.254028 -3.043288
v 1.769666 0.254028 -7.300563
v -0.024904 -0.000001 -6.557227
v -3.369322 -0.000000 -5.171925
v -6.713738 -0.000000 -3.786624
v -0.024904 0.254028 -6.557226
v -6.713738 0.254028 -3.786624
v -3.369322 0.254028 -5.171925
v 1.536045 0.254028 -8.172449
v -12.921711 -0.000001 -6.269050
v -12.921711 0.254028 -6.269050
v -9.493581 -0.000001 -6.720370
v -9.493582 0.254028 -6.720371
v -3.978769 -0.000001 -7.446410
v -7.567769 -0.000001 -6.973909
v -0.389767 -0.000001 -7.918910
v -3.978769 0.254028 -7.446410
v -0.389767 0.254028 -7.918910
v -7.567769 0.254028 -6.973909
v -11.487943 0.254028 -8.623770
v 4.964173 0.254029 7.828337
v 0.706051 0.254029 7.267745
v -3.261885 0.254029 5.624173
v 0.706052 0.000001 7.267745
v -3.261884 0.000000 5.624172
v 4.964173 0.000001 7.828337
v -6.669230 0.000000 3.009626
v -9.283777 -0.000000 -0.397716
v -10.927349 -0.000000 -4.365651
v -11.487942 -0.000001 -8.623770
v -9.283777 0.254028 -0.397716
v -6.669230 0.254029 3.009627
v -10.927350 0.254028 -4.365652
v 2.835383 0.254029 7.548078
v 2.835384 0.000001 7.548077
v -1.277917 0.254029 6.445959
v -1.277916 0.000000 6.445958
v -4.965558 0.254029 4.316900
v -4.965557 0.000000 4.316899
v -7.976504 0.254028 1.305956
v -7.976503 0.000000 1.305955
v -10.105562 -0.000000 -2.381683
v -10.105563 0.254028 -2.381684
v -11.207645 -0.000001 -6.494710
v -11.207647 0.254028 -6.494710
v 3.592580 0.254028 -7.571310
v 3.911713 0.254028 -7.252177
v 4.302569 0.254028 -7.026517
v 4.964173 0.000000 2.299772
v 4.964173 0.254029 2.299772
v 2.136951 0.000000 1.927561
v -0.497601 0.000000 0.836295
v -2.759942 -0.000000 -0.899659
v -4.495897 -0.000000 -3.161999
v 2.136951 0.254029 1.927561
v -5.587163 -0.000000 -5.796549
v -5.959374 -0.000001 -8.623770
v -5.587163 0.254028 -5.796549
v -5.959374 0.254028 -8.623770
v -0.497601 0.254028 0.836295
v -2.759942 0.254028 -0.899659
v -4.495897 0.254028 -3.161999
v 3.550742 0.254029 2.113690
v 3.550742 0.000000 2.113690
v 0.819675 0.254028 1.381928
v 0.819675 0.000000 1.381928
v -1.628771 0.254028 -0.031682
v -1.628771 -0.000000 -0.031682
v -3.627919 0.254028 -2.030829
v -3.627919 -0.000000 -2.030829
v -5.041530 0.254028 -4.479274
v -5.041530 -0.000000 -4.479274
v -5.773269 0.254028 -7.210159
v -5.773269 -0.000001 -7.210159
v 4.964173 -0.000000 -1.351433
v 4.964173 0.254028 -1.351433
v 3.081953 0.254028 -1.599231
v 1.328003 -0.000000 -2.325741
v -0.178148 -0.000000 -3.481451
v 3.081953 -0.000000 -1.599232
v -1.333858 -0.000000 -4.987601
v -2.060368 -0.000001 -6.741550
v -2.308168 -0.000001 -8.623770
v -2.060368 0.254028 -6.741550
v -2.308168 0.254028 -8.623770
v -0.178148 0.254028 -3.481451
v -1.333858 0.254028 -4.987601
v 1.328003 0.254028 -2.325741
v 4.023183 -0.000000 -1.475317
v 4.023183 0.254028 -1.475317
v 2.204978 0.254028 -1.962487
v 2.204978 -0.000000 -1.962486
v 0.574927 0.254028 -2.903596
v 0.574927 -0.000000 -2.903596
v -0.756003 0.254028 -4.234525
v -0.756003 -0.000000 -4.234526
v -1.697113 0.254028 -5.864575
v -1.697113 -0.000000 -5.864576
v -2.184268 0.254028 -7.682660
v -2.184268 -0.000001 -7.682660
v 3.279818 0.254028 -8.172449
v 3.110600 0.254028 -8.127108
v 3.302860 0.254028 -7.664611
v 3.611259 0.254028 -7.270856
v 4.006763 0.254028 -6.965487
v 4.964173 0.254028 -6.708793
v 3.206747 0.254028 -7.895821
v 4.716464 0.254028 -6.741984
v 4.468841 0.254028 -6.775164
v 3.078578 0.254028 -8.375526
v 4.237863 0.254028 -6.870302
v 3.808933 0.254028 -7.118233
v 3.046578 0.254028 -8.623770
v 3.457261 0.254028 -7.467476
vn -0.0000 1.0000 -0.0000
vn -0.4834 0.8731 0.0636
vn -0.4994 0.8560 0.1338
vn -0.0000 -1.0000 -0.0000
vn 1.0000 -0.0000 -0.0000
vn 0.4876 0.8731 -0.0000
vn 0.4114 0.7793 0.4727
vn 0.0147 0.9972 -0.0731
vn 1.0000 -0.0001 -0.0000
vn -0.7934 -0.0000 0.6088
vn -0.3868 0.8731 0.2968
vn -0.4477 0.8560 0.2585
vn -0.3827 -0.0000 0.9239
vn -0.1866 0.8731 0.4504
vn -0.2585 0.8560 0.4477
vn -0.6088 -0.0000 0.7934
vn -0.2968 0.8731 0.3868
vn -0.3656 0.8560 0.3656
vn -0.1343 -0.0000 0.9909
vn -0.0654 0.8736 0.4822
vn -0.1338 0.8560 0.4994
vn -0.1305 -0.0000 0.9914
vn -0.0000 -0.0000 -1.0000
vn 0.0001 0.9551 -0.2961
vn -0.2515 0.9418 -0.2231
vn -0.9239 -0.0000 0.3827
vn -0.4504 0.8731 0.1866
vn -0.9914 -0.0000 0.1305
vn -0.4709 0.7796 -0.4129
vn -0.0000 0.8731 -0.4876
vn 0.7178 0.6962 -0.0000
vn -0.0000 0.6962 -0.7178
vn -0.0228 0.9993 -0.0292
vn 0.1132 0.9914 -0.0653
vn -0.0452 0.9972 0.0589
vn 0.0293 0.9993 0.0226
vn -0.0654 0.9914 0.1131
vn -0.0343 0.9993 -0.0141
vn -0.1295 0.9914 -0.0174
vn -0.1382 -0.0000 0.9904
vn 0.0339 0.9914 -0.1262
vn -0.0284 0.9972 0.0686
vn -0.0589 0.9972 0.0452
vn -0.0924 0.9914 0.0924
vn -0.0501 0.9914 -0.1207
vn 0.0168 0.9979 0.0627
vn 0.1296 0.9914 -0.0170
vn -0.1262 0.9914 0.0338
vt 0.833746 0.705162
vt 0.874768 0.752615
vt 0.809579 0.808971
vt 0.774804 0.756117
vt 0.375000 0.729167
vt 0.375000 0.750000
vt 0.375000 0.750000
vt 0.375000 0.729167
vt 0.096676 0.152323
vt 0.109008 0.163294
vt 0.066955 0.210564
vt 0.054624 0.199593
vt 0.375000 0.229167
vt 0.375000 0.250000
vt 0.625000 0.250000
vt 0.625000 0.229167
vt 0.625000 0.750000
vt 0.625000 0.750000
vt 0.375000 0.729167
vt 0.375000 0.750000
vt 0.625003 0.750000
vt 0.238296 0.254108
vt 0.330580 0.254894
vt 0.331240 1.239203
vt 0.238894 1.238500
vt 0.114415 0.747175
vt 0.178897 0.790927
vt 0.150512 0.847470
vt 0.079195 0.799082
vt 0.375000 0.208333
vt 0.625000 0.208333
vt 0.000000 0.000000
vt 0.281350 0.112540
vt 0.375000 0.729166
vt 0.375000 0.729166
vt 0.625000 0.750000
vt 0.375000 0.729166
vt 0.403805 0.847710
vt 0.481514 0.853358
vt 0.485203 0.916519
vt 0.399258 0.910272
vt 0.781250 0.500000
vt 0.423416 0.255685
vt 0.425310 1.239911
vt 0.252496 0.816495
vt 0.326096 0.842063
vt 0.313312 0.904026
vt 0.231912 0.875748
vt 0.375000 0.541667
vt 0.625000 0.541667
vt 0.625000 0.583333
vt 0.375000 0.583333
vt 0.375000 0.604167
vt 0.625000 0.604167
vt 0.625000 0.625000
vt 0.375000 0.625000
vt 0.375000 0.645834
vt 0.625000 0.645834
vt 0.625000 0.666667
vt 0.375000 0.666667
vt 0.625000 0.708333
vt 0.375000 0.708333
vt 0.625000 0.574713
vt 0.625000 0.553879
vt 0.625000 0.574713
vt 0.375000 0.645833
vt 0.375000 0.666667
vt 0.375000 0.645833
vt 0.375000 0.708333
vt 0.375000 0.666667
vt 0.375000 0.708333
vt 0.375000 0.645833
vt 0.375000 0.645833
vt 0.375000 0.604167
vt 0.375000 0.625000
vt 0.375000 0.604166
vt 0.375000 0.625000
vt 0.375000 0.645833
vt 0.375000 0.708333
vt 0.625000 0.645833
vt 0.375000 0.604167
vt 0.625000 0.574713
vt 0.375000 0.583333
vt 0.781250 0.750000
vt 0.937500 0.250000
vt 0.937500 0.875000
vt 0.985352 0.795053
vt 0.360352 0.794791
vt 0.360430 0.607291
vt 0.985430 0.607553
vt 0.985352 0.795053
vt 0.360273 0.982291
vt 0.985273 0.982553
vt 0.985352 0.795075
vt 0.360352 0.794814
vt 0.663028 0.811018
vt 0.663248 0.654749
vt 0.038248 0.653869
vt 0.038028 0.810140
vt 0.985352 0.795053
vt 0.812500 0.591797
vt 0.812500 0.757812
vt 0.500000 0.757812
vt 0.500000 0.591797
vt 0.812500 0.937500
vt 0.812500 0.757812
vt 1.125000 0.757812
vt 1.125000 0.937500
vt 0.812500 0.649585
vt 0.812500 -0.016431
vt 1.125000 -0.016431
vt 1.125000 0.649585
vt 0.827952 0.354489
vt 0.796712 1.026894
vt 0.484548 1.012391
vt 0.515788 0.339986
vt 0.187500 0.591797
vt 0.187500 0.757812
vt -0.125000 0.757812
vt -0.125000 0.591797
vt 0.187500 0.592969
vt 0.187500 1.266099
vt -0.125000 1.266099
vt -0.125000 0.592969
vt 0.187500 0.649585
vt 0.187500 -0.016431
vt 0.500000 -0.016431
vt 0.500000 0.649585
vt 0.187500 0.937500
vt 0.187500 0.757813
vt 0.500000 0.937500
vt 0.662808 0.967248
vt 0.037808 0.966368
vt 0.660016 -0.274382
vt 0.575528 -0.274261
vt 0.569559 0.663899
vt 0.654045 0.663174
vt 0.610432 0.250000
vt 0.305216 0.250000
vt 0.275410 0.250000
vt 0.275277 0.250000
vt 0.322064 -0.273898
vt 0.237576 -0.273777
vt 0.231615 0.666798
vt 0.316101 0.666073
vt 0.367702 0.250000
vt 0.453409 0.250000
vt 0.468750 0.250000
vt 0.049949 0.703435
vt 0.007897 0.750705
vt -0.001725 0.134412
vt 0.045728 0.093389
vt 1.106327 0.336867
vt 1.143204 1.008986
vt 0.831173 1.026107
vt 0.794296 0.353988
vt 1.125000 0.591797
vt 0.500000 0.337109
vt 0.500000 1.010239
vt 0.187500 1.010239
vt 0.187500 0.337109
vt 0.500000 0.356616
vt 0.500000 -0.309399
vt 0.812500 -0.309399
vt 0.812500 0.356616
vt 0.516252 0.256477
vt 0.515688 1.240618
vt -0.125000 0.937500
vt -0.125000 0.649585
vt -0.125000 -0.016431
vt 0.145433 0.253316
vt 0.144800 1.237792
vt 0.892688 0.654207
vt 0.939958 0.696260
vt -0.038379 1.236382
vt -0.039714 0.251738
vt 0.052569 0.252524
vt 0.051936 1.237085
vt 0.732025 0.846534
vt 0.704682 0.790081
vt 0.558037 0.838701
vt 0.569837 0.900308
vt 0.700136 1.242033
vt 0.607297 1.241326
vt 0.609087 0.257268
vt 0.701923 0.258059
vt 0.885813 1.243448
vt 0.794205 1.242741
vt 0.794758 0.258851
vt 0.887594 0.259642
vt 1.072420 1.244871
vt 0.976937 1.244151
vt 0.979887 0.260429
vt 1.074304 0.261233
vt 0.634560 0.824044
vt 0.654471 0.884097
vt 0.138729 0.105053
vt 0.151060 0.116023
vt 0.069093 -0.273536
vt 0.063137 0.668244
vt 0.147130 0.667523
vt 0.153088 -0.273656
vt 0.312500 0.250000
vt 0.281937 0.250000
vt 0.282026 0.250000
vt 0.610470 0.250000
vt 0.305235 0.250000
vt 0.275121 0.250000
vt 0.275559 0.250000
vt 0.406551 -0.274019
vt 0.400587 0.665349
vt 0.485072 0.664624
vt 0.491039 -0.274140
vt 0.617521 0.250000
vt 0.277798 0.250000
vt 0.277854 0.250000
vt 0.744002 -0.274503
vt 0.738029 0.662454
vt 0.822541 0.661729
vt 0.828516 -0.274624
vt 0.913029 -0.274745
vt 0.907052 0.661003
vt 0.997015 -0.274865
vt 0.991035 0.660283
vt 0.625000 0.637213
vt 0.625000 0.616380
vt 0.625000 0.637213
vt -0.098184 1.007762
vt -0.150858 0.336697
vt 0.160684 0.312243
vt 0.213358 0.983308
vt 0.500000 1.285630
vt 0.500000 0.612500
vt 0.812500 0.612500
vt 0.812500 1.285630
vt 0.500000 -0.029743
vt 0.500000 0.636273
vt 0.187500 0.636273
vt 0.187500 -0.029743
vt 1.130477 -0.016266
vt 1.119480 0.649659
vt 0.807023 0.644499
vt 0.818020 -0.021426
vt 0.625000 0.616380
vt 0.155486 0.991482
vt 0.220997 0.321548
vt 0.532014 0.351961
vt 0.466503 1.021895
vt 0.187500 -0.255220
vt 0.187500 0.410796
vt -0.125000 0.410796
vt -0.125000 -0.255220
vt 0.812500 1.004010
vt 0.812500 0.330880
vt 1.125000 0.330880
vt 1.125000 1.004010
vt 0.826710 -0.017706
vt 0.798000 0.647691
vt 0.485790 0.634220
vt 0.514500 -0.031177
vt 0.500000 0.591797
vt 0.812500 0.591797
vt 0.500000 0.937500
vt 0.187500 0.937500
vt 0.812500 0.937500
vt 0.625000 0.604166
vt 0.625000 0.604166
vt 0.000000 0.137509
vt 0.000000 0.137558
vt 0.000000 0.125000
vt 0.000000 0.137460
vt 0.274682 0.250000
vt 0.275542 0.250000
vt 0.281847 0.250000
vt 0.000000 0.137535
vt -0.022788 0.668981
vt -0.016834 -0.273413
s 1
usemtl concrete.002
f 175/1/1 141/2/2 72/3/3 163/4/1
f 167/5/4 96/6/4 33/7/4 155/8/4
f 156/9/5 151/10/6 2/11/7 3/12/5
f 62/13/5 42/14/5 43/15/8 61/16/9
f 117/7/10 118/17/11 21/18/12 12/7/10
f 169/19/4 108/7/4 32/7/4 157/8/4
f 96/6/13 97/17/14 44/18/15 33/7/13
f 171/8/4 117/7/4 12/7/4 158/8/4
f 108/7/16 106/17/17 22/18/18 32/7/16
f 84/20/19 85/21/20 23/18/21 54/7/22
f 165/8/4 84/20/4 54/7/4 154/8/4
f 164/26/1 152/27/1 23/28/21 85/29/20
f 11/30/5 62/13/5 61/16/9 52/31/5
f 42/14/23 63/32/23 60/32/24 243/33/25 43/15/8
f 172/34/4 129/6/4 64/7/4 159/35/4
f 129/6/26 130/36/27 72/18/3 64/7/26
f 140/7/28 141/18/2 81/18/29 73/7/28
f 174/37/4 140/7/4 73/7/4 160/8/4
f 168/38/1 162/39/1 22/40/18 106/41/17
f 150/42/30 160/8/23 73/7/23 81/18/29
f 166/45/1 153/46/1 44/47/15 97/48/14
f 151/149/6 164/26/1 85/29/20 2/150/7
f 156/9/4 3/12/4 84/151/4 165/152/4
f 3/7/40 2/18/7 85/21/20 84/20/19
f 152/27/1 166/45/1 97/48/14 23/28/21
f 54/7/13 23/18/21 97/17/14 96/6/13
f 154/8/4 54/7/4 96/6/4 167/5/4
f 153/46/1 168/38/1 106/41/17 44/47/15
f 33/7/16 44/18/15 106/17/17 108/7/16
f 155/8/4 33/7/4 108/7/4 169/19/4
f 157/8/4 32/7/4 117/7/4 171/8/4
f 32/7/10 22/18/18 118/17/11 117/7/10
f 12/7/26 21/18/12 130/36/27 129/6/26
f 158/8/4 12/7/4 129/6/4 172/34/4
f 159/35/4 64/7/4 140/7/4 174/37/4
f 64/7/28 72/18/3 141/18/2 140/7/28
f 150/173/30 81/174/29 141/2/2 175/1/1
f 68/62/4 159/35/4 174/37/4 142/62/4
f 72/3/3 130/179/27 173/180/1 163/4/1
f 17/62/4 158/8/4 172/34/4 128/62/4
f 27/62/4 157/8/4 171/8/4 120/71/4
f 22/40/18 162/39/1 170/181/1 118/182/11
f 38/62/4 155/8/4 169/19/4 107/69/4
f 48/62/4 154/8/4 167/5/4 95/69/4
f 7/62/4 156/19/4 165/8/4 86/79/4
f 118/182/11 170/181/1 161/195/1 21/196/12
f 76/85/32 77/62/23 160/8/23 150/42/30
f 142/62/4 174/37/4 160/8/4 77/62/4
f 128/62/4 172/34/4 159/35/4 68/62/4
f 130/179/27 21/196/12 161/195/1 173/180/1
f 86/79/4 165/8/4 154/8/4 48/62/4
f 120/71/4 171/8/4 158/8/4 17/62/4
f 107/69/4 169/19/4 157/8/4 27/62/4
f 7/197/5 6/198/31 151/10/6 156/9/5
f 95/69/4 167/5/4 155/8/4 38/62/4
usemtl asphalt_blank.002
f 11/49/5 52/50/5 1/51/5 10/52/5
f 205/53/5 206/54/5 4/55/5 9/56/5
f 179/57/5 180/58/5 5/59/5 8/60/5
f 8/60/5 5/59/5 6/61/31 7/62/5
f 220/63/1 90/64/1 53/64/1 207/65/1
f 194/66/4 92/67/4 47/60/4 181/68/4
f 100/60/4 95/69/4 38/62/4 39/60/4
f 111/70/4 107/69/4 27/62/4 26/60/4
f 224/53/4 113/56/4 25/56/4 209/53/4
f 122/70/4 120/71/4 17/62/4 18/60/4
f 196/72/4 100/60/4 39/60/4 182/73/4
f 222/74/4 101/75/4 40/56/4 208/53/4
f 226/76/4 124/77/4 19/56/4 211/53/4
f 198/73/4 111/70/4 26/60/4 183/68/4
f 200/78/4 122/70/4 18/60/4 184/66/4
f 92/67/4 86/79/4 48/62/4 47/60/4
f 193/80/1 89/55/1 51/55/1 185/80/1
f 219/74/4 91/56/4 46/56/4 210/53/4
f 228/81/4 134/56/4 70/56/4 212/53/4
f 135/67/4 128/62/4 68/62/4 69/60/4
f 202/57/4 135/67/4 69/60/4 186/66/4
f 204/57/4 145/67/4 78/60/4 187/73/4
f 230/74/4 144/56/4 79/56/4 213/53/4
f 229/82/1 148/64/1 59/64/1 215/82/1
f 145/67/4 142/62/4 77/62/4 78/60/4
f 203/80/1 147/55/1 74/55/1 189/80/1
f 10/52/4 94/52/4 45/52/4 102/52/4 41/52/4 112/52/4 24/52/4 123/83/4 20/52/4 133/52/4 71/52/4 146/52/4 80/52/4 63/32/4 42/14/4 62/13/4 11/30/4
f 189/84/23 187/73/23 78/60/23 77/62/23 76/85/32 75/86/23
f 205/53/4 9/56/4 91/56/4 219/74/4
f 180/58/1 4/55/1 89/55/1 193/80/1
f 8/60/4 7/62/4 86/79/4 92/67/4
f 179/57/4 8/60/4 92/67/4 194/66/4
f 206/82/1 1/64/1 90/64/1 220/63/1
f 210/53/4 46/56/4 101/75/4 222/74/4
f 181/68/4 47/60/4 100/60/4 196/72/4
f 47/60/4 48/62/4 95/69/4 100/60/4
f 182/73/4 39/60/4 111/70/4 198/73/4
f 208/53/4 40/56/4 113/56/4 224/53/4
f 39/60/4 38/62/4 107/69/4 111/70/4
f 183/68/4 26/60/4 122/70/4 200/78/4
f 209/53/4 25/56/4 124/77/4 226/76/4
f 26/60/4 27/62/4 120/71/4 122/70/4
f 184/66/4 18/60/4 135/67/4 202/57/4
f 18/60/4 17/62/4 128/62/4 135/67/4
f 211/53/4 19/56/4 134/56/4 228/81/4
f 188/80/1 65/55/1 147/55/1 203/80/1
f 69/60/4 68/62/4 142/62/4 145/67/4
f 214/82/1 57/64/1 148/64/1 229/82/1
f 212/53/4 70/56/4 144/56/4 230/74/4
f 186/66/4 69/60/4 145/67/4 204/57/4
f 70/56/4 186/66/4 204/57/4 144/56/4
f 66/225/1 188/226/1 203/226/1 149/227/1
f 19/56/4 184/66/4 202/57/4 134/56/4
f 25/56/4 183/68/4 200/78/4 124/77/4
f 40/56/4 182/73/4 198/73/4 113/56/4
f 46/56/4 181/68/4 196/72/4 101/75/4
f 9/56/4 179/57/4 194/66/4 91/56/4
f 5/225/1 180/244/1 193/226/1 93/227/1
f 215/54/23 213/53/23 79/56/23 187/73/23 189/84/23 74/55/23
f 149/227/1 203/226/1 189/226/1 75/225/1
f 144/56/4 204/57/4 187/73/4 79/56/4
f 134/56/4 202/57/4 186/66/4 70/56/4
f 93/227/1 193/226/1 185/226/1 50/225/1
f 124/77/4 200/78/4 184/66/4 19/56/4
f 113/56/4 198/73/4 183/68/4 25/56/4
f 101/75/4 196/72/4 182/73/4 40/56/4
f 91/56/4 194/66/4 181/68/4 46/56/4
f 9/56/5 4/55/5 180/58/5 179/57/5
f 60/32/24 63/32/23 80/52/23 213/53/23 215/54/23 59/51/23
f 71/52/4 212/53/4 230/74/4 146/52/4
f 65/55/1 214/54/1 229/54/1 147/55/1
f 20/52/4 211/53/4 228/81/4 133/52/4
f 24/52/4 209/53/4 226/76/4 123/83/4
f 41/52/4 208/53/4 224/53/4 112/52/4
f 45/52/4 210/53/4 222/74/4 102/52/4
f 4/55/1 206/54/1 220/266/1 89/55/1
f 10/52/4 205/53/4 219/74/4 94/52/4
f 147/55/1 229/54/1 215/54/1 74/55/1
f 146/52/4 230/74/4 213/53/4 80/52/4
f 133/52/4 228/81/4 212/53/4 71/52/4
f 94/52/4 219/74/4 210/53/4 45/52/4
f 123/83/4 226/76/4 211/53/4 20/52/4
f 102/52/4 222/74/4 208/53/4 41/52/4
f 112/52/4 224/53/4 209/53/4 24/52/4
f 89/55/1 220/266/1 207/267/1 51/55/1
f 10/52/5 1/51/5 206/54/5 205/53/5
usemtl asphalt_top_side.002
f 173/22/1 161/23/1 16/24/1 131/25/1
f 170/43/1 119/44/1 16/24/1 161/23/1
f 98/87/1 103/88/1 36/89/1 37/90/1
f 119/87/1 125/88/1 15/89/1 16/90/1
f 109/91/1 114/88/1 29/92/1 28/93/1
f 87/94/1 93/95/1 50/89/1 49/90/1
f 88/96/1 55/97/1 53/98/1 90/99/1
f 99/97/1 82/97/1 34/98/1 104/98/1
f 110/97/1 56/97/1 31/98/1 115/98/1
f 121/97/1 83/97/1 13/98/1 126/98/1
f 132/97/1 58/97/1 57/98/1 136/98/1
f 139/97/1 60/97/1 59/98/1 148/98/1
f 131/100/1 137/88/1 66/89/1 67/90/1
f 143/91/1 149/88/1 75/92/1 76/93/1
f 52/132/1 88/96/1 90/99/1 1/133/1
f 83/134/1 121/135/1 244/136/33 233/137/34
f 43/138/8 177/139/35 242/140/36 235/141/37
f 82/142/1 99/143/1 241/144/38 235/145/37
f 43/15/8 238/146/39 236/147/1 61/148/9
f 6/93/1 5/92/1 93/95/1 87/94/1
f 55/97/1 99/97/1 104/98/1 53/98/1
f 49/93/1 50/92/1 103/88/1 98/87/1
f 82/97/1 110/97/1 115/98/1 34/98/1
f 37/90/1 36/89/1 114/88/1 109/91/1
f 56/97/1 121/97/1 126/98/1 31/98/1
f 28/93/1 29/92/1 125/88/1 119/87/1
f 162/166/1 28/167/1 119/44/1 170/43/1
f 16/93/1 15/92/1 137/88/1 131/100/1
f 83/97/1 132/97/1 136/98/1 13/98/1
f 163/171/1 173/22/1 131/25/1 67/172/1
f 67/90/1 66/89/1 149/88/1 143/91/1
f 58/97/1 139/97/1 148/98/1 57/98/1
f 76/175/32 150/176/30 175/177/1 143/178/1
f 37/183/1 109/184/1 168/185/1 153/186/1
f 49/187/1 98/188/1 166/189/1 152/190/1
f 6/191/31 87/192/1 164/193/1 151/194/6
f 98/188/1 37/183/1 153/186/1 166/189/1
f 109/184/1 28/167/1 162/166/1 168/185/1
f 87/192/1 49/187/1 152/190/1 164/193/1
f 143/178/1 175/177/1 163/171/1 67/172/1
f 88/199/1 238/200/39 239/201/41 55/202/1
f 43/15/8 178/203/42 241/204/38 239/205/41
f 43/206/8 176/207/43 244/208/33 234/209/44
f 110/210/1 242/211/36 234/212/44 56/213/1
f 43/214/8 237/215/45 233/216/34
f 132/217/1 237/218/45 232/219/46 58/220/1
f 139/221/1 58/220/1 232/219/46 240/222/47
f 60/223/24 139/221/1 240/222/47 243/224/25
f 240/268/47 232/269/46 231/270/48 43/32/8
f 243/271/25 240/268/47 43/32/8
f 239/205/41 238/146/39 43/15/8
f 239/201/41 241/144/38 99/143/1 55/202/1
f 234/212/44 244/136/33 121/135/1 56/213/1
f 233/272/34 244/208/33 176/207/43 43/206/8
f 234/273/44 242/140/36 177/139/35 43/138/8
f 235/145/37 242/211/36 110/210/1 82/142/1
f 233/137/34 237/218/45 132/217/1 83/134/1
f 235/274/37 241/204/38 178/203/42 43/15/8
f 232/269/46 237/275/45 43/32/8 231/270/48
f 236/276/1 238/200/39 88/199/1 52/277/1
usemtl ashpalt_ylw_solid.001
f 195/101/1 105/102/1 35/103/1 190/104/1
f 199/105/1 127/106/1 14/107/1 192/108/1
f 225/109/1 126/110/1 13/111/1 217/112/1
f 221/113/1 104/114/1 34/115/1 218/116/1
f 197/117/1 116/118/1 30/119/1 191/120/1
f 223/121/1 115/122/1 31/123/1 216/124/1
f 227/125/1 136/126/1 57/127/1 214/128/1
f 201/129/1 138/130/1 65/103/1 188/131/1
f 207/153/1 53/154/1 104/155/1 221/156/1
f 185/157/1 51/107/1 105/102/1 195/101/1
f 218/158/1 34/159/1 115/160/1 223/161/1
f 190/104/1 35/103/1 116/118/1 197/117/1
f 216/162/1 31/163/1 126/164/1 225/165/1
f 191/131/1 30/103/1 127/106/1 199/105/1
f 192/168/1 14/119/1 138/130/1 201/129/1
f 217/169/1 13/170/1 136/126/1 227/125/1
f 15/228/1 192/229/1 201/230/1 137/231/1
f 29/232/1 191/233/1 199/234/1 125/235/1
f 36/236/1 190/237/1 197/238/1 114/239/1
f 50/240/1 185/241/1 195/242/1 103/243/1
f 137/245/1 201/246/1 188/247/1 66/248/1
f 114/249/1 197/250/1 191/251/1 29/252/1
f 125/253/1 199/254/1 192/255/1 15/256/1
f 103/257/1 195/258/1 190/259/1 36/260/1
f 14/119/1 217/120/1 227/117/1 138/130/1
f 30/103/1 216/261/1 225/262/1 127/106/1
f 35/103/1 218/263/1 223/264/1 116/118/1
f 51/107/1 207/108/1 221/265/1 105/102/1
f 138/130/1 227/117/1 214/261/1 65/103/1
f 116/118/1 223/264/1 216/168/1 30/119/1
f 105/102/1 221/265/1 218/263/1 35/103/1
f 127/106/1 225/262/1 217/157/1 14/107/1
o inner_outer_border
v 4.963810 0.249196 -8.626259
v 4.963810 0.249196 -6.709591
v 4.863811 0.449196 -6.823620
v 4.863811 0.449196 -8.526258
v 4.467741 0.249196 -6.774900
v 4.493845 0.449196 -6.872326
v 3.608522 0.249196 -7.270970
v 3.112453 0.249196 -8.130190
v 3.047143 0.249196 -8.626259
v 3.161171 0.449196 -8.526259
v 4.963810 0.249196 -7.667925
v 4.863811 0.449196 -7.667925
v 4.715775 0.449196 -7.700579
v 4.133870 0.449196 -8.147091
v 4.038131 0.449196 -8.378224
v 4.005477 0.449196 -8.526258
v 4.005477 0.249196 -6.966376
v 4.005477 0.399196 -6.966376
v 4.484643 0.449196 -7.796318
v 3.608522 0.399196 -7.270970
v 4.286167 0.449196 -7.948615
v 3.303928 0.249196 -7.667925
v 3.391279 0.449196 -7.718357
v 3.209878 0.449196 -8.156294
v 4.963810 0.399196 -7.667925
v 4.963810 0.399196 -8.626259
v 4.467741 0.399196 -6.774900
v 4.963810 0.399196 -6.709591
v 4.005477 0.399196 -8.626259
v 3.047143 0.399196 -8.626259
v 4.055909 0.449196 -7.053726
v 3.679843 0.449196 -7.342291
v 3.303928 0.399196 -7.667925
v 3.112453 0.399196 -8.130190
v 4.963919 0.253139 9.591940
v 4.964036 0.253139 7.696641
v -3.185153 0.253139 5.492095
v -3.317247 0.453139 5.535257
v -4.136148 0.253139 7.134342
v -1.939334 0.253139 8.047686
v 2.606167 0.253139 9.261826
v -1.221671 0.253139 6.309735
v 0.745844 0.253139 7.120511
v 0.253965 0.253139 8.953697
v 2.935516 0.453139 7.527875
v 2.851213 0.253139 7.420072
v -4.890680 0.253139 4.218588
v -4.877360 0.453139 4.375075
v -6.018076 0.253139 5.689888
v -6.547222 0.253139 2.887475
v -6.547222 0.403139 2.887475
v -7.902218 0.403139 4.242760
v -7.902304 0.253139 4.242789
v 0.622810 0.453139 7.184048
v 0.196345 0.453139 8.813402
v -5.870332 0.453139 5.682006
v 4.864036 0.453139 7.784339
v 4.861118 0.453140 9.475811
v -1.796987 0.453139 8.012829
v -4.153883 0.453139 6.983718
v -1.167961 0.453139 6.453925
v 2.726028 0.453139 9.171318
v 0.817206 0.453139 7.235894
v -1.378155 0.453139 6.365733
v 0.401151 0.453139 8.852240
v -2.030599 0.453139 7.922031
v 4.964036 0.403139 7.696641
v 4.963919 0.403140 9.591940
v 2.731922 0.453139 7.499717
v 2.506821 0.453139 9.145573
v -3.152489 0.453139 5.621028
v -3.965709 0.453139 7.084087
v -5.032832 0.453139 4.252101
v -6.044950 0.453139 5.541193
v -1.939334 0.403139 8.047686
v -4.136148 0.403139 7.134342
v -3.185153 0.403139 5.492095
v -1.221671 0.403139 6.309735
v 0.745844 0.403139 7.120511
v 0.253965 0.403139 8.953697
v 2.606167 0.403140 9.261826
v 2.851213 0.403139 7.420072
v -6.018076 0.403139 5.689888
v -7.746386 0.453139 4.246212
v -4.890680 0.403139 4.218588
v -6.532766 0.453139 3.034704
vn 1.0000 -0.0000 -0.0000
vn -0.0000 1.0000 -0.0000
vn -0.9914 -0.0000 0.1305
vn -0.0000 -0.0000 -1.0000
vn -0.1305 -0.0000 0.9914
vn -0.3827 -0.0000 0.9239
vn -0.6088 -0.0000 0.7934
vn -0.7934 -0.0000 0.6088
vn -0.9239 -0.0000 0.3827
vn 0.4472 0.8944 -0.0000
vn -0.0584 0.8944 0.4434
vn -0.0000 0.8944 -0.4472
vn -0.1711 0.8944 0.4132
vn -0.2722 0.8944 0.3548
vn -0.3548 0.8944 0.2722
vn -0.4132 0.8944 0.1711
vn -0.4434 0.8944 0.0584
vn 1.0000 -0.0000 0.0001
vn -0.3818 -0.0000 0.9242
vn 0.3810 -0.0000 -0.9246
vn 0.3844 -0.0000 -0.9232
vn -0.3839 -0.0000 0.9234
vn -0.1299 -0.0000 0.9915
vn 0.1409 -0.0000 -0.9900
vn 0.1298 -0.0000 -0.9915
vn -0.1387 -0.0000 0.9903
vn -0.6089 -0.0000 0.7933
vn 0.5983 -0.0000 -0.8013
vn -0.6091 0.0002 0.7931
vn 0.6264 -0.0000 -0.7795
vn 0.1579 0.9093 -0.3850
vn -0.1728 0.8890 0.4240
vn 0.4422 0.8969 0.0004
vn -0.3790 0.9123 -0.1548
vn 0.4423 0.8891 0.1173
vn 0.0595 0.8906 -0.4508
vn -0.0608 0.9004 0.4307
vn -0.4353 0.8985 -0.0568
vn 0.4142 0.8781 0.2396
vn 0.2373 0.9177 -0.3185
vn -0.3312 0.9091 -0.2528
vn -0.2661 0.8987 0.3487
vn -0.1796 0.8878 0.4238
vn 0.1606 0.9092 -0.3841
vn 0.3365 0.9312 0.1400
vn -0.4080 0.9066 -0.1074
vn 0.4077 0.9115 0.0550
vn -0.2787 0.8886 0.3644
vn 0.2591 0.9110 -0.3209
vn -0.3660 0.9071 -0.2080
vn -0.0549 0.9119 0.4068
vn 0.0621 0.8942 -0.4433
vn 0.3477 0.8981 0.2695
vn -0.2850 0.9151 -0.2852
vn -0.7072 0.0001 -0.7070
vt 0.625000 0.229167
vt 0.625000 0.208333
vt 0.625000 0.228880
vt 0.625000 0.210526
vt 0.559783 0.221739
vt 0.000000 -0.002174
vt 0.625000 0.250000
vt 0.000000 0.000000
vt -0.687500 0.125000
vt -0.375000 0.125000
vt 0.625000 0.750000
vt 0.625000 0.708333
vt 0.625000 0.747807
vt 0.625000 0.710526
s 1
usemtl concrete.003
f 255/278/49 269/278/49 272/279/49 246/279/49
f 256/280/50 257/278/50 250/281/50 247/281/50
f 278/279/51 274/279/51 253/279/51 252/279/51
f 259/278/50 260/280/50 254/281/50 268/281/50
f 260/278/50 259/278/50 258/278/50 265/278/50 263/278/50 257/278/50 256/280/50
f 256/280/50 248/282/50 260/283/50
f 245/284/49 270/284/49 269/278/49 255/278/49
f 270/284/52 245/284/52 253/279/52 274/279/52 273/285/52
f 272/279/53 271/279/53 249/286/53 246/287/53
f 249/286/54 271/279/54 262/279/54 261/286/54
f 250/281/50 257/278/50 263/278/50 275/281/50
f 261/286/55 262/279/55 264/279/55 251/286/55
f 275/281/50 263/278/50 265/278/50 276/281/50
f 251/286/56 264/279/56 277/279/56 266/286/56
f 276/281/50 265/278/50 258/278/50 267/281/50
f 266/286/57 277/279/57 278/279/57 252/286/57
f 267/281/50 258/278/50 259/278/50 268/281/50
f 248/282/58 256/280/58 269/278/58 270/284/58
f 247/281/59 250/281/59 271/279/59 272/279/59
f 260/283/60 248/282/60 270/284/60 273/285/60
f 256/280/58 247/281/58 272/279/58 269/278/58
f 254/281/60 260/280/60 273/278/60 274/279/60
f 250/281/61 275/281/61 262/279/61 271/279/61
f 275/281/62 276/281/62 264/279/62 262/279/62
f 276/281/63 267/281/63 277/279/63 264/279/63
f 267/281/64 268/281/64 278/279/64 277/279/64
f 268/281/65 254/281/65 274/279/65 278/279/65
f 279/288/66 280/289/66 311/289/66 312/288/66
f 288/288/67 324/288/67 319/288/67 284/288/67
f 323/289/68 287/289/68 286/289/68 322/289/68
f 322/289/69 286/289/69 281/289/69 321/289/69
f 284/288/70 319/288/70 320/288/70 283/288/70
f 285/288/71 324/288/71 288/288/71
f 326/289/72 290/289/72 323/289/72
f 311/289/73 280/289/73 290/289/73 326/289/73
f 279/288/74 312/288/74 325/288/74 285/288/74
f 283/288/75 320/288/75 293/288/75
f 321/289/76 291/289/76 329/289/76
f 293/288/77 327/288/77 296/288/77 297/288/77
f 329/289/78 291/289/78 294/289/78 295/289/78
f 323/289/72 290/289/72 287/289/72
f 291/289/76 321/289/76 281/289/76
f 324/288/71 285/288/71 325/288/71
f 293/288/75 320/288/75 327/288/75
f 328/290/50 318/290/50 317/291/50 330/291/50
f 282/291/50 292/291/50 300/290/50 304/290/50
f 310/290/50 308/291/50 315/291/50 316/290/50
f 305/291/50 303/290/50 299/290/50 298/291/50
f 307/291/50 309/290/50 314/290/50 313/291/50
f 301/291/50 289/291/50 306/290/50 302/290/50
f 305/291/79 298/291/79 323/289/79 322/289/79
f 299/290/80 303/290/80 319/288/80 324/288/80
f 301/291/81 302/290/81 312/288/81 311/289/81
f 303/290/82 305/291/82 322/289/82 319/288/82
f 298/291/83 299/290/83 324/288/83 323/289/83
f 289/291/84 301/291/84 311/289/84 326/289/84
f 302/290/85 306/290/85 325/288/85 312/288/85
f 306/290/86 289/291/86 326/289/86 325/288/86
f 282/291/87 304/290/87 320/288/87 321/289/87
f 292/291/88 282/291/88 321/289/88 329/289/88
f 300/290/89 292/291/89 329/289/89 327/288/89
f 304/290/90 300/290/90 327/288/90 320/288/90
f 310/290/91 316/290/91 320/288/91 319/288/91
f 315/291/92 308/291/92 322/289/92 321/289/92
f 308/291/93 310/290/93 319/288/93 322/289/93
f 309/290/94 307/291/94 323/289/94 324/288/94
f 313/291/95 314/290/95 325/288/95 326/289/95
f 318/290/96 328/290/96 296/288/96 327/288/96
f 330/291/97 317/291/97 329/289/97 295/289/97
f 316/290/98 315/291/98 321/289/98 320/288/98
f 314/290/99 309/290/99 324/288/99 325/288/99
f 307/291/100 313/291/100 326/289/100 323/289/100
f 317/291/101 318/290/101 327/288/101 329/289/101
f 328/290/102 330/291/102 295/289/102 296/288/102
f 296/288/103 295/289/103 294/289/103 297/288/103
o inner_outer_border.001
v -7.902261 0.253139 4.242696
v -6.547116 0.253139 2.887414
v -10.790020 0.253139 -4.400745
v -10.894564 0.453139 -4.482971
v -12.611236 0.253139 -3.913912
v -11.703278 0.253139 -1.719531
v -9.352481 0.253139 2.360339
v -9.975743 0.253139 -2.434767
v -9.133459 0.253139 -0.482774
v -10.794924 0.253139 0.475399
v -7.890258 0.453139 1.349167
v -7.864535 0.253139 1.218671
v -11.070918 0.253139 -6.512478
v -11.165796 0.453139 -6.398681
v -12.921686 0.253139 -6.268106
v -11.325419 0.253139 -8.623709
v -11.325419 0.403139 -8.623709
v -13.231763 0.403139 -8.623747
v -13.231763 0.253139 -8.623747
v -9.267115 0.453139 -0.533832
v -10.743210 0.453139 0.313668
v -12.804936 0.453139 -6.189590
v -6.679241 0.453139 2.879698
v -7.887035 0.453140 4.093664
v -11.572028 0.453139 -1.643530
v -12.517474 0.453139 -4.033122
v -10.025989 0.453139 -2.276298
v -9.229698 0.453140 2.398344
v -9.168045 0.453139 -0.354345
v -10.136313 0.453139 -2.515871
v -10.648477 0.453139 0.514841
v -11.652183 0.453139 -1.886498
v -6.547116 0.403139 2.887414
v -7.902261 0.403140 4.242732
v -7.990557 0.453139 1.176135
v -9.329997 0.453139 2.225310
v -10.857894 0.453139 -4.286362
v -12.480806 0.453139 -3.836515
v -11.200773 0.453139 -6.595598
v -12.839915 0.453139 -6.386507
v -11.703278 0.403139 -1.719531
v -12.611236 0.403139 -3.913912
v -10.790020 0.403139 -4.400745
v -9.975743 0.403139 -2.434767
v -9.133459 0.403139 -0.482774
v -10.794924 0.403139 0.475399
v -9.352481 0.403140 2.360339
v -7.864535 0.403139 1.218671
v -12.921686 0.403139 -6.268106
v -13.126746 0.453139 -8.514322
v -11.070918 0.403139 -6.512478
v -11.421385 0.453139 -8.531612
vn 0.7071 -0.0001 0.7071
vn -0.9240 -0.0000 0.3824
vn 0.9182 -0.0000 -0.3962
vn 0.9239 -0.0000 -0.3827
vn -0.9240 -0.0000 0.3823
vn -0.7942 -0.0000 0.6077
vn 0.8016 -0.0000 -0.5978
vn 0.7849 -0.0000 -0.6196
vn -0.7922 -0.0001 0.6103
vn -0.9914 -0.0000 0.1307
vn 0.9913 -0.0000 -0.1319
vn -0.9914 -0.0000 0.1305
vn 0.9928 -0.0000 -0.1197
vn -0.0000 1.0000 -0.0000
vn 0.3923 0.9040 -0.1700
vn -0.4095 0.8961 0.1713
vn 0.3251 0.8884 0.3243
vn -0.1426 0.9273 -0.3462
vn 0.2024 0.9140 0.3516
vn 0.3509 0.8944 -0.2773
vn -0.3875 0.8708 0.3025
vn -0.2822 0.8875 -0.3642
vn 0.1187 0.8919 0.4364
vn 0.4398 0.8961 -0.0603
vn -0.0592 0.8884 -0.4552
vn -0.4196 0.9060 0.0556
vn -0.4091 0.8962 0.1714
vn 0.3771 0.9131 -0.1550
vn 0.1325 0.9382 0.3197
vn -0.2236 0.8956 -0.3845
vn 0.2698 0.8977 0.3482
vn -0.4687 0.8811 0.0624
vn 0.4029 0.9140 -0.0473
vn -0.1167 0.8957 -0.4290
vn -0.3661 0.8871 0.2811
vn 0.3874 0.8740 -0.2932
vn 0.0563 0.8996 0.4330
vn -0.0021 0.8958 -0.4444
vn -0.0000 -0.0000 -1.0000
vt 0.625000 0.750000
vt 0.625000 0.708333
vt 0.625000 0.747807
vt 0.625000 0.710526
s 1
usemtl concrete.005
f 331/292/104 332/293/104 363/293/104 364/292/104
f 340/292/105 376/292/105 371/292/105 336/292/105
f 375/293/106 339/293/106 338/293/106 374/293/106
f 374/293/107 338/293/107 333/293/107 373/293/107
f 336/292/108 371/292/108 372/292/108 335/292/108
f 337/292/109 376/292/109 340/292/109
f 378/293/110 342/293/110 375/293/110
f 363/293/111 332/293/111 342/293/111 378/293/111
f 331/292/112 364/292/112 377/292/112 337/292/112
f 335/292/113 372/292/113 345/292/113
f 373/293/114 343/293/114 381/293/114
f 345/292/115 379/292/115 348/292/115 349/292/115
f 381/293/116 343/293/116 346/293/116 347/293/116
f 375/293/110 342/293/110 339/293/110
f 343/293/114 373/293/114 333/293/114
f 376/292/109 337/292/109 377/292/109
f 345/292/113 372/292/113 379/292/113
f 380/294/117 370/294/117 369/295/117 382/295/117
f 334/295/117 344/295/117 352/294/117 356/294/117
f 362/294/117 360/295/117 367/295/117 368/294/117
f 357/295/117 355/294/117 351/294/117 350/295/117
f 359/295/117 361/294/117 366/294/117 365/295/117
f 353/295/117 341/295/117 358/294/117 354/294/117
f 357/295/118 350/295/118 375/293/118 374/293/118
f 351/294/119 355/294/119 371/292/119 376/292/119
f 353/295/120 354/294/120 364/292/120 363/293/120
f 355/294/121 357/295/121 374/293/121 371/292/121
f 350/295/122 351/294/122 376/292/122 375/293/122
f 341/295/123 353/295/123 363/293/123 378/293/123
f 354/294/124 358/294/124 377/292/124 364/292/124
f 358/294/125 341/295/125 378/293/125 377/292/125
f 334/295/126 356/294/126 372/292/126 373/293/126
f 344/295/127 334/295/127 373/293/127 381/293/127
f 352/294/128 344/295/128 381/293/128 379/292/128
f 356/294/129 352/294/129 379/292/129 372/292/129
f 362/294/130 368/294/130 372/292/130 371/292/130
f 367/295/131 360/295/131 374/293/131 373/293/131
f 360/295/132 362/294/132 371/292/132 374/293/132
f 361/294/133 359/295/133 375/293/133 376/292/133
f 365/295/134 366/294/134 377/292/134 378/293/134
f 370/294/135 380/294/135 348/292/135 379/292/135
f 382/295/136 369/295/136 381/293/136 347/293/136
f 368/294/137 367/295/137 373/293/137 372/292/137
f 366/294/138 361/294/138 376/292/138 377/292/138
f 359/295/139 365/295/139 378/293/139 375/293/139
f 369/295/140 370/294/140 379/292/140 381/293/140
f 380/294/141 382/295/141 347/293/141 348/292/141
f 348/292/142 347/293/142 346/293/142 349/292/142
