# Blender 4.3.2
# www.blender.org
mtllib road_corner_edit_joined.mtl
o base_street
v -7.902261 0.253139 4.242697
v 4.964173 0.254028 -3.177035
v 4.963810 0.249196 -8.626259
v 4.964173 0.254029 9.590567
v 4.964173 0.000001 9.590567
v -10.894564 0.453139 -4.482971
v 4.863811 0.449196 -6.823620
v -11.703278 0.253139 -1.719531
v 4.964173 0.254028 0.474170
v -9.352481 0.253139 2.360339
v 4.863811 0.449196 -8.526258
v 4.964173 0.254029 4.125375
v 4.964173 0.254029 6.084565
v 4.493845 0.449196 -6.872326
v -10.794924 0.253139 0.475399
v 4.964173 0.000000 6.084565
v -7.890258 0.453139 1.349167
v 4.964173 0.000000 4.125375
v 4.964173 0.000000 0.474170
v 3.047144 0.249196 -8.626259
v -11.165796 0.453139 -6.398682
v 4.964173 -0.000000 -3.177035
v -12.921686 0.253139 -6.268106
v 3.161172 0.449196 -8.526259
v 4.964173 -0.000000 -5.136226
v -11.325418 0.403138 -8.623710
v 4.863811 0.449196 -7.667926
v -13.231762 0.403138 -8.623748
v -13.231762 0.253138 -8.623748
v -10.793928 0.000000 0.474170
v -9.267114 0.453139 -0.533832
v 4.715776 0.449196 -7.700579
v -10.743210 0.453139 0.313668
v 0.247163 0.254028 -5.900401
v 4.133871 0.449196 -8.147091
v -12.804935 0.453139 -6.189590
v -2.914877 0.254028 -4.074800
v -6.679240 0.453139 2.879698
v -7.887035 0.453139 4.093665
v 4.038131 0.449196 -8.378224
v -11.572027 0.453139 -1.643530
v -6.076915 0.254028 -2.249198
v 4.005478 0.449196 -8.526258
v -12.517473 0.453139 -4.033122
v -7.773625 0.254028 -1.269601
v -10.025988 0.453139 -2.276298
v -7.773623 -0.000000 -1.269601
v -9.229697 0.453139 2.398344
v 4.005478 0.399196 -6.966376
v -9.168045 0.453139 -0.354345
v -6.076915 -0.000000 -2.249198
v -10.136312 0.453139 -2.515871
v -10.648477 0.453139 0.514841
v 4.484643 0.449196 -7.796318
v -11.652182 0.453139 -1.886498
v -2.914877 -0.000000 -4.074800
v -6.547116 0.403139 2.887414
v 0.247163 -0.000000 -5.900403
v -7.902261 0.403139 4.242732
v 3.608522 0.399196 -7.270970
v -7.990556 0.453139 1.176135
v 4.286168 0.449196 -7.948615
v -9.329996 0.453139 2.225310
v -10.793928 0.254028 0.474170
v -7.902263 0.254029 4.242660
v -10.857893 0.453139 -4.286362
v -12.480806 0.453139 -3.836515
v 3.391279 0.449196 -7.718357
v -11.200772 0.453139 -6.595598
v 0.254730 0.254029 8.952099
v -12.839914 0.453139 -6.386507
v 3.209878 0.449196 -8.156295
v -11.703278 0.403139 -1.719531
v 1.112750 -0.000000 -4.772346
v 4.963810 0.399196 -7.667926
v -12.611235 0.403139 -3.913912
v -10.790020 0.403139 -4.400745
v -1.469044 -0.000000 -2.190555
v -9.975742 0.403139 -2.434767
v -4.050838 -0.000000 0.391236
v 4.963810 0.399196 -8.626259
v -9.133459 0.403139 -0.482774
v -10.794924 0.403139 0.475399
v -5.436194 0.000000 1.776592
v -9.352481 0.403139 2.360339
v 4.467741 0.399196 -6.774900
v 4.963810 0.399196 -6.709591
v -7.864534 0.403139 1.218671
v -5.436196 0.254029 1.776594
v -12.921686 0.403139 -6.268106
v -13.126745 0.453138 -8.514321
v -4.050838 0.254028 0.391236
v 4.005478 0.399196 -8.626259
v -11.070917 0.403139 -6.512478
v 3.047144 0.399196 -8.626259
v -11.421384 0.453138 -8.531612
v -1.469044 0.254028 -2.190555
v 1.112750 0.254028 -4.772346
v 4.055910 0.449196 -7.053726
v 3.679843 0.449196 -7.342291
v -7.902263 0.000000 4.242660
v 3.303929 0.399196 -7.667926
v -4.133770 0.000001 7.134323
v 3.112453 0.399196 -8.130189
v 2.240806 0.254028 -3.906759
v 0.415202 0.254028 -0.744723
v 4.963920 0.253139 9.591941
v -1.410401 0.254029 2.417313
v -2.389998 0.254029 4.114022
v -3.317246 0.453139 5.535258
v -2.389997 0.000000 4.114020
v -1.410401 0.000000 2.417313
v -4.136147 0.253139 7.134343
v 0.415202 -0.000000 -0.744723
v -1.939333 0.253139 8.047686
v 2.606168 0.253139 9.261826
v 2.240806 -0.000000 -3.906759
v 4.964173 -0.000001 -8.623770
v 4.964173 0.254028 -8.623770
v 0.253965 0.253139 8.953698
v -4.133770 0.254029 7.134323
v 3.554454 -0.000000 -3.362628
v 2.935516 0.453139 7.527876
v 2.609453 -0.000000 0.164165
v 1.664452 0.000000 3.690957
v 1.157376 0.000000 5.583390
v -4.877360 0.453139 4.375075
v 1.157374 0.254029 5.583392
v -6.018075 0.253139 5.689888
v 1.664452 0.254029 3.690957
v 2.609453 0.254028 0.164165
v -7.902217 0.403138 4.242760
v 4.964173 0.254028 -5.136226
v 3.554454 0.254028 -3.362628
v -7.902303 0.253138 4.242789
v 0.622811 0.453139 7.184048
v 0.254730 0.000001 8.952099
v 0.196346 0.453139 8.813403
v 4.061530 0.254028 -5.255061
v 2.498107 0.254028 -6.157704
v -5.870331 0.453139 5.682007
v 4.864036 0.453139 7.784340
v -0.296969 0.254028 -7.214051
v 1.595464 0.254028 -7.721128
v 4.861118 0.453139 9.475811
v -0.482563 0.254028 -8.623770
v -1.796986 0.453139 8.012829
v -4.153883 0.453139 6.983719
v 1.476628 0.254028 -8.623770
v 4.964173 0.254028 -6.879998
v -1.167960 0.453139 6.453925
v 4.964173 -0.000001 -6.879998
v 2.726029 0.453139 9.171319
v 0.817207 0.453139 7.235895
v 1.476628 -0.000001 -8.623770
v -1.378155 0.453139 6.365733
v -12.611706 -0.000000 -3.914330
v -3.823765 0.254028 -6.269050
v 0.401152 0.453139 8.852241
v -7.350560 0.254028 -5.324049
v -2.030598 0.453139 7.922031
v -9.242994 0.254028 -4.816973
v 4.964036 0.403139 7.696642
v 4.963920 0.403139 9.591941
v -9.242992 -0.000000 -4.816972
v 2.731923 0.453139 7.499717
v -7.350560 -0.000000 -5.324049
v -3.823765 -0.000001 -6.269050
v 2.506822 0.453139 9.145574
v -3.152488 0.453139 5.621029
v -0.296969 -0.000001 -7.214051
v -3.965708 0.453139 7.084087
v -12.611706 0.254028 -3.914330
v -5.032831 0.453139 4.252101
v -13.231716 -0.000001 -8.623770
v -6.044949 0.453139 5.541193
v -4.133770 0.254028 -8.623770
v -7.784976 0.254028 -8.623770
v -1.939333 0.403139 8.047686
v -9.744169 0.254028 -8.623770
v -4.136147 0.403139 7.134343
v -3.185152 0.403139 5.492095
v -9.744167 -0.000001 -8.623770
v -7.784976 -0.000001 -8.623770
v -1.221670 0.403139 6.309735
v -4.133770 -0.000001 -8.623770
v 0.745845 0.403139 7.120511
v -0.482563 -0.000001 -8.623770
v 0.253965 0.403139 8.953698
v -13.231716 0.254028 -8.623770
v 2.606168 0.403139 9.261826
v 3.220401 0.254028 -5.603468
v 2.851213 0.403139 7.420073
v 1.943871 0.254028 -6.879998
v -6.018075 0.403139 5.689888
v -7.746385 0.453138 4.246212
v 2.609752 0.000001 9.262144
v -4.890679 0.403139 4.218588
v 2.609752 0.254029 9.262144
v -6.532765 0.453138 3.034704
v 3.061018 0.000000 5.834010
v 3.061017 0.254029 5.834011
v 4.512909 0.254028 -5.195636
v 3.786963 0.254028 0.319187
v 4.259404 0.254028 -3.269820
v 3.786963 -0.000000 0.319187
v 3.314523 0.000000 3.908194
v 3.314523 0.254029 3.908194
v 4.259404 -0.000000 -3.269820
v -0.616310 0.000000 4.848705
v -1.939520 0.000001 8.043210
v -1.939520 0.254029 8.043210
v -0.616312 0.254029 4.848707
v 3.640965 0.254028 -5.429265
v 0.127026 0.000000 3.054135
v 1.512327 -0.000000 -0.290279
v 2.897630 -0.000000 -3.634694
v 0.127026 0.254029 3.054135
v 2.897630 0.254028 -3.634694
v 1.512327 0.254028 -0.290279
v -6.018017 0.254029 5.688492
v -3.913095 0.000000 2.945306
v -6.018017 0.000000 5.688492
v -3.913097 0.254029 2.945308
v 2.859254 0.254028 -5.880586
v -2.730619 0.000000 1.404275
v 1.676778 -0.000000 -4.339553
v -0.526921 -0.000000 -1.467639
v -2.730619 0.254028 1.404275
v 1.676778 0.254028 -4.339553
v -0.526921 0.254028 -1.467639
v -9.348096 0.000000 2.358415
v -9.348096 0.254029 2.358415
v -6.604911 0.254028 0.253496
v -6.604909 -0.000000 0.253496
v 2.220989 0.254028 -6.518851
v -5.063876 -0.000000 -0.928981
v 0.679956 -0.000000 -5.336374
v -2.191961 -0.000000 -3.132678
v -5.063876 0.254028 -0.928981
v 0.679956 0.254028 -5.336373
v -2.191961 0.254028 -3.132678
v -8.508308 -0.000000 -3.043287
v -11.702817 -0.000000 -1.720080
v -11.702817 0.254028 -1.720080
v -8.508310 0.254028 -3.043288
v 1.769667 0.254028 -7.300563
v -0.024903 -0.000001 -6.557227
v -3.369321 -0.000000 -5.171925
v -6.713737 -0.000000 -3.786624
v -0.024903 0.254028 -6.557226
v -6.713737 0.254028 -3.786624
v -3.369321 0.254028 -5.171925
v 1.536046 0.254028 -8.172449
v -12.921711 -0.000001 -6.269050
v -12.921711 0.254028 -6.269050
v -9.493580 -0.000001 -6.720370
v -9.493582 0.254028 -6.720371
v -3.978768 -0.000001 -7.446410
v -7.567768 -0.000001 -6.973909
v -0.389766 -0.000001 -7.918910
v -3.978768 0.254028 -7.446410
v -0.389766 0.254028 -7.918910
v -7.567768 0.254028 -6.973909
v -11.487942 0.254028 -8.623770
v 4.964173 0.254029 7.828337
v 0.706052 0.254029 7.267745
v -3.261884 0.254029 5.624173
v 0.706053 0.000001 7.267745
v -3.261883 0.000000 5.624172
v 4.964173 0.000001 7.828337
v -6.669229 0.000000 3.009626
v -9.283775 -0.000000 -0.397716
v -10.927349 -0.000000 -4.365651
v -11.487942 -0.000001 -8.623770
v -9.283777 0.254028 -0.397716
v -6.669230 0.254029 3.009627
v -10.927349 0.254028 -4.365652
v 2.835384 0.254029 7.548078
v 2.835385 0.000001 7.548077
v -1.277916 0.254029 6.445959
v -1.277915 0.000000 6.445958
v -4.965557 0.254029 4.316900
v -4.965556 0.000000 4.316899
v -7.976503 0.254028 1.305956
v -7.976502 0.000000 1.305955
v -10.105562 -0.000000 -2.381683
v -10.105562 0.254028 -2.381684
v -11.207645 -0.000001 -6.494710
v -11.207645 0.254028 -6.494710
v 3.592580 0.254028 -7.571310
v 3.911713 0.254028 -7.252177
v 4.302569 0.254028 -7.026517
v 4.964173 0.000000 2.299772
v 4.964173 0.254029 2.299772
v 2.136952 0.000000 1.927561
v -0.497600 0.000000 0.836295
v -2.759941 -0.000000 -0.899659
v -4.495896 -0.000000 -3.161999
v 2.136952 0.254029 1.927561
v -5.587163 -0.000000 -5.796549
v -5.959373 -0.000001 -8.623770
v -5.587162 0.254028 -5.796549
v -5.959373 0.254028 -8.623770
v -0.497600 0.254028 0.836295
v -2.759941 0.254028 -0.899659
v -4.495896 0.254028 -3.161999
v 3.550742 0.254029 2.113690
v 3.550742 0.000000 2.113690
v 0.819676 0.254028 1.381928
v 0.819676 0.000000 1.381928
v -1.628770 0.254028 -0.031682
v -1.628770 -0.000000 -0.031682
v -3.627918 0.254028 -2.030829
v -3.627918 -0.000000 -2.030829
v -5.041530 0.254028 -4.479274
v -5.041530 -0.000000 -4.479274
v -5.773268 0.254028 -7.210159
v -5.773268 -0.000001 -7.210159
v 4.964173 -0.000000 -1.351433
v 4.964173 0.254028 -1.351433
v 3.081954 0.254028 -1.599231
v 1.328004 -0.000000 -2.325741
v -0.178147 -0.000000 -3.481451
v 3.081954 -0.000000 -1.599232
v -1.333857 -0.000000 -4.987601
v -2.060367 -0.000001 -6.741550
v -2.308167 -0.000001 -8.623770
v -2.060367 0.254028 -6.741550
v -2.308167 0.254028 -8.623770
v -0.178147 0.254028 -3.481451
v -1.333857 0.254028 -4.987601
v 1.328004 0.254028 -2.325741
v 4.023183 -0.000000 -1.475317
v 4.023183 0.254028 -1.475317
v 2.204979 0.254028 -1.962487
v 2.204979 -0.000000 -1.962486
v 0.574928 0.254028 -2.903596
v 0.574928 -0.000000 -2.903596
v -0.756002 0.254028 -4.234525
v -0.756002 -0.000000 -4.234526
v -1.697112 0.254028 -5.864575
v -1.697112 -0.000000 -5.864576
v -2.184267 0.254028 -7.682660
v -2.184267 -0.000001 -7.682660
v 3.279818 0.254028 -8.172449
v 3.110600 0.254028 -8.127108
v 3.302860 0.254028 -7.664611
v 3.611259 0.254028 -7.270856
v 4.006764 0.254028 -6.965487
v 4.964173 0.254028 -6.708793
v 3.206748 0.254028 -7.895821
v 4.716464 0.254028 -6.741984
v 4.468842 0.254028 -6.775164
v 3.078579 0.254028 -8.375526
v 4.237863 0.254028 -6.870302
v 3.808933 0.254028 -7.118233
v 3.046579 0.254028 -8.623770
v 3.457262 0.254028 -7.467476
v -7.902213 0.254029 4.242699
v -7.902213 0.253138 4.242699
v 4.963810 0.249196 -8.623770
v 3.047472 0.249196 -8.623770
v 4.963810 0.254028 -8.623770
v 3.047472 0.254028 -8.623770
v -7.380105 0.254029 3.720502
v 4.963810 0.254028 -8.623141
v 4.963810 0.254028 -8.623297
v 4.006931 0.254028 -6.965775
v 4.005769 0.254028 -6.966256
v 4.237799 0.254028 -6.870145
v 4.159421 0.254028 -6.902611
v 4.963810 0.254028 -8.621015
v 4.716486 0.254028 -6.742153
v 4.963810 0.254028 -7.667926
v 4.963810 0.254028 -6.709591
v 4.964029 0.254029 7.828318
v 4.963920 0.254029 9.590530
v 4.963920 0.253139 9.590530
v -6.547142 0.254029 2.887539
v -6.547221 0.254029 2.887476
v -6.669282 0.254029 3.009558
v -4.890324 0.254029 4.218854
v -4.880558 0.254029 4.226146
v -3.185486 0.254029 5.491847
v -1.221517 0.254029 6.309798
v 0.745537 0.254029 7.120385
v 2.852217 0.254029 7.420204
v 4.964036 0.254029 7.696642
v -3.185152 0.254029 5.492095
v -1.221670 0.254029 6.309735
v -4.890679 0.254029 4.218588
v 0.745845 0.254029 7.120511
v 2.838722 0.254029 7.418295
v 2.851213 0.254029 7.420073
v 4.643402 0.254028 -6.751774
v 4.468736 0.254028 -6.774769
v 4.963810 0.254028 -8.622416
v 4.963810 0.254028 -8.622894
v 4.963810 0.254028 -8.623406
v 4.963810 0.254028 -8.623491
v 3.480758 0.254028 -7.437476
v 3.457562 0.254028 -7.467706
v 3.808430 0.254028 -7.117577
v 3.610136 0.254028 -7.269732
v 3.209125 0.254028 -7.896805
v 4.963810 0.254028 -8.623560
v 4.963810 0.254028 -8.623619
v 3.305365 0.254028 -7.666057
v 3.303929 0.254028 -7.667926
v 3.113417 0.254028 -8.127862
v 3.112453 0.254028 -8.130189
v 3.080127 0.254028 -8.375731
v 4.963810 0.254028 -8.623672
v 4.963810 0.254028 -8.623722
v 4.467741 0.254028 -6.774900
v 3.608522 0.254028 -7.270970
v 4.005478 0.254028 -6.966376
v -12.861856 0.254028 -5.814416
v -12.611305 0.254028 -3.914438
v -7.902241 0.253139 4.242677
v -7.902241 0.253637 4.242677
v -7.902241 0.254029 4.242677
v -9.134056 0.254028 -0.484157
v -9.975986 0.254028 -2.435356
v -9.975742 0.254028 -2.434767
v -12.337477 0.253139 -3.252281
v -12.337477 0.254028 -3.252281
v -13.231714 0.254028 -8.623748
v -13.231714 0.253138 -8.623748
v -7.519932 0.254029 3.860329
v -7.872059 0.254028 1.208582
v -7.863862 0.254028 1.219523
v -7.864534 0.254028 1.218671
v -9.133459 0.254028 -0.482774
v -6.547116 0.254029 2.887414
v -6.547197 0.254029 2.887495
v -6.669267 0.254029 3.009578
v -10.790237 0.254028 -4.402390
v -10.790020 0.254028 -4.400745
v -12.861856 0.253139 -5.814416
v -11.487934 0.254028 -8.623713
v -11.325418 0.254028 -8.623710
v -11.070946 0.254028 -6.512708
v -12.611235 0.254028 -3.913912
v -7.172453 0.254029 3.512815
v -11.070917 0.254028 -6.512478
v -11.069252 0.254028 -6.499958
v -6.547197 0.403138 2.887495
v -6.547219 0.403146 2.887498
v -6.547198 0.403139 2.887496
v -7.058612 0.403138 3.398976
v -7.031161 0.403139 3.371521
v -7.056411 0.346766 3.396761
v -7.173888 0.290947 3.514250
vn -0.9914 -0.0000 0.1305
vn -0.4994 0.8560 0.1338
vn -0.0000 1.0000 -0.0000
vn -0.4834 0.8731 0.0636
vn -0.2667 0.9632 0.0351
vn -0.0000 -1.0000 -0.0000
vn 1.0000 -0.0000 -0.0000
vn 0.4876 0.8731 -0.0000
vn 0.4122 0.7788 0.4728
vn 0.4638 0.7469 -0.4764
vn 0.8361 0.4991 0.2276
vn -0.7934 -0.0000 0.6088
vn -0.3868 0.8731 0.2968
vn -0.4477 0.8560 0.2585
vn -0.3827 -0.0000 0.9239
vn -0.1866 0.8731 0.4504
vn -0.2585 0.8560 0.4477
vn -0.6089 -0.0000 0.7932
vn -0.3690 0.8556 0.3630
vn -0.6088 -0.0000 0.7934
vn -0.2968 0.8731 0.3868
vn -0.3167 0.8540 0.4127
vn -0.6087 -0.0000 0.7934
vn -0.6061 -0.0000 0.7954
vn -0.2847 0.8890 0.3585
vn -0.2778 0.8887 0.3647
vn -0.3151 0.8542 0.4136
vn -0.1343 -0.0000 0.9909
vn -0.0654 0.8736 0.4822
vn -0.1338 0.8560 0.4994
vn -0.1305 -0.0000 0.9914
vn -0.0000 -0.0000 -1.0000
vn 0.0629 0.8116 -0.5808
vn -0.0000 0.8889 -0.4582
vn -0.0000 0.8731 -0.4876
vn 0.0280 0.8977 -0.4398
vn -0.0000 0.8540 -0.5203
vn -0.9239 -0.0000 0.3827
vn -0.4504 0.8731 0.1866
vn -0.2485 0.9632 0.1029
vn -0.4682 0.7804 -0.4144
vn -0.5158 0.8540 0.0679
vn -0.9920 -0.0000 0.1259
vn -0.4572 0.8876 0.0559
vn 0.7178 0.6962 -0.0000
vn -0.0000 0.6962 -0.7178
vn -0.0057 1.0000 -0.0073
vn 0.0943 0.9952 0.0253
vn 0.0073 1.0000 0.0056
vn 0.0257 0.9995 -0.0196
vn -0.0722 0.8528 0.5173
vn -0.0622 0.8898 0.4521
vn -0.1372 -0.0000 0.9905
vn -0.1382 -0.0000 0.9904
vn 0.0599 0.9979 -0.0249
vn -0.0064 0.9988 0.0482
vn 0.0085 0.9979 0.0643
vn 0.4472 0.8944 -0.0000
vn -0.0584 0.8944 0.4434
vn -0.0000 0.8944 -0.4472
vn -0.1711 0.8944 0.4132
vn -0.2722 0.8944 0.3548
vn -0.3548 0.8944 0.2722
vn -0.4132 0.8944 0.1711
vn -0.4434 0.8944 0.0584
vn 1.0000 -0.0000 0.0001
vn -0.3818 -0.0000 0.9242
vn 0.3810 -0.0000 -0.9246
vn 0.3844 -0.0000 -0.9232
vn -0.3839 -0.0000 0.9234
vn -0.1299 -0.0000 0.9915
vn 0.1409 -0.0000 -0.9900
vn 0.1298 -0.0000 -0.9915
vn -0.1387 -0.0000 0.9903
vn -0.6089 -0.0000 0.7933
vn 0.5983 -0.0000 -0.8013
vn -0.6091 0.0002 0.7931
vn 0.8077 0.5782 -0.1152
vn 0.6264 -0.0000 -0.7795
vn 0.9985 -0.0000 -0.0545
vn 0.1579 0.9093 -0.3850
vn -0.1728 0.8890 0.4240
vn 0.4422 0.8969 0.0004
vn -0.3790 0.9123 -0.1548
vn 0.4423 0.8891 0.1173
vn 0.0595 0.8906 -0.4508
vn -0.0608 0.9004 0.4307
vn -0.4353 0.8985 -0.0568
vn 0.4142 0.8781 0.2396
vn 0.2373 0.9177 -0.3185
vn -0.3312 0.9091 -0.2528
vn -0.2661 0.8987 0.3487
vn -0.1796 0.8878 0.4238
vn 0.1606 0.9092 -0.3841
vn 0.3365 0.9312 0.1400
vn -0.4080 0.9066 -0.1074
vn 0.4077 0.9115 0.0550
vn -0.2787 0.8886 0.3644
vn 0.1956 0.9801 -0.0328
vn 0.2591 0.9110 -0.3209
vn 0.3655 0.9297 0.0448
vn -0.3660 0.9071 -0.2080
vn -0.0549 0.9119 0.4068
vn 0.0621 0.8942 -0.4433
vn 0.3477 0.8981 0.2695
vn -0.2850 0.9151 -0.2852
vn 0.0159 0.9998 0.0153
vn -0.2925 0.9104 -0.2927
vn -0.7072 0.0002 -0.7070
vn -0.3369 0.8800 0.3347
vn -0.3361 0.8801 0.3354
vn -0.3364 0.8799 0.3354
vn 0.7075 -0.0000 0.7067
vn 0.7071 -0.0001 0.7071
vn -0.9240 -0.0000 0.3824
vn 0.9182 -0.0000 -0.3962
vn 0.9239 -0.0000 -0.3827
vn -0.9240 -0.0000 0.3823
vn -0.7942 -0.0000 0.6077
vn 0.8016 -0.0000 -0.5978
vn 0.7849 -0.0000 -0.6196
vn -0.7922 -0.0001 0.6103
vn -0.9914 -0.0000 0.1307
vn 0.9913 -0.0000 -0.1319
vn 0.9928 -0.0000 -0.1197
vn 0.3923 0.9040 -0.1700
vn -0.4095 0.8961 0.1713
vn 0.3251 0.8884 0.3243
vn -0.1426 0.9273 -0.3462
vn 0.2024 0.9140 0.3516
vn 0.3509 0.8944 -0.2773
vn -0.3875 0.8708 0.3025
vn -0.2822 0.8875 -0.3642
vn 0.1187 0.8919 0.4364
vn 0.4398 0.8961 -0.0603
vn -0.0592 0.8884 -0.4552
vn -0.4196 0.9060 0.0556
vn -0.4091 0.8962 0.1714
vn 0.3771 0.9131 -0.1550
vn 0.1325 0.9382 0.3197
vn -0.2236 0.8956 -0.3845
vn 0.2698 0.8977 0.3482
vn -0.4687 0.8811 0.0624
vn 0.4029 0.9140 -0.0473
vn -0.1167 0.8957 -0.4290
vn -0.3661 0.8871 0.2811
vn 0.3874 0.8740 -0.2932
vn 0.0563 0.8996 0.4330
vn -0.0021 0.8958 -0.4444
vt 0.862182 0.763496
vt 0.809579 0.808971
vt 0.809571 0.808958
vt 0.774804 0.756117
vt 0.833746 0.705162
vt 0.874768 0.752615
vt 0.375000 0.729167
vt 0.375000 0.750000
vt 0.375000 0.750000
vt 0.375000 0.729167
vt 0.096676 0.152323
vt 0.109008 0.163294
vt 0.066955 0.210564
vt 0.054624 0.199593
vt 0.375000 0.229167
vt 0.375000 0.250000
vt 0.625000 0.250000
vt 0.625000 0.229167
vt 0.625000 0.750000
vt 0.625000 0.750000
vt 0.375000 0.729167
vt 0.624614 0.750000
vt 0.624124 0.750000
vt 0.624125 0.750000
vt 0.375000 0.750000
vt 0.625003 0.750000
vt 0.238296 0.254108
vt 0.330580 0.254894
vt 0.330645 0.352481
vt 0.238373 0.333966
vt 0.238345 0.333966
vt 0.331240 1.239203
vt 0.238894 1.238500
vt 0.114415 0.747175
vt 0.178897 0.790927
vt 0.150512 0.847470
vt 0.079195 0.799082
vt 0.375000 0.208333
vt 0.625000 0.208333
vt 0.279360 0.112604
vt 0.281350 0.112540
vt 0.281510 0.112604
vt 0.620192 0.249974
vt 0.624935 0.249974
vt 0.000000 0.000000
vt 0.375000 0.729166
vt 0.375000 0.729166
vt 0.624125 0.750000
vt 0.625000 0.750000
vt 0.624125 0.750000
vt 0.375000 0.729166
vt 0.484059 0.896935
vt 0.485203 0.916519
vt 0.485202 0.916519
vt 0.485201 0.916519
vt 0.483641 0.889772
vt 0.399258 0.910272
vt 0.403805 0.847710
vt 0.481514 0.853358
vt 0.781250 0.500000
vt 0.423416 0.255685
vt 0.423572 0.336514
vt 0.423523 0.336505
vt 0.422956 0.336599
vt 0.330713 0.352272
vt 0.425310 1.239911
vt 0.252496 0.816495
vt 0.326096 0.842063
vt 0.313312 0.904026
vt 0.231912 0.875748
vt 0.375000 0.541667
vt 0.625000 0.541667
vt 0.625000 0.583333
vt 0.375000 0.583333
vt 0.375000 0.604167
vt 0.625000 0.604167
vt 0.625000 0.625000
vt 0.375000 0.625000
vt 0.375000 0.645834
vt 0.625000 0.645834
vt 0.625000 0.666667
vt 0.375000 0.666667
vt 0.625000 0.708333
vt 0.375000 0.708333
vt 0.625000 0.574713
vt 0.625000 0.553879
vt 0.625000 0.574713
vt 0.375000 0.645833
vt 0.375000 0.666667
vt 0.375000 0.645833
vt 0.375000 0.708333
vt 0.375000 0.666667
vt 0.375000 0.708333
vt 0.375000 0.645833
vt 0.375000 0.645833
vt 0.375000 0.604167
vt 0.375000 0.625000
vt 0.375000 0.604166
vt 0.375000 0.625000
vt 0.375000 0.645833
vt 0.375000 0.708333
vt 0.625000 0.645833
vt 0.375000 0.604167
vt 0.625000 0.574713
vt 0.375000 0.583333
vt 0.937500 0.250000
vt 0.937500 0.875000
vt 0.781250 0.750000
vt 0.985352 0.795053
vt 0.360352 0.794791
vt 0.360430 0.607291
vt 0.985430 0.607553
vt 0.985352 0.795053
vt 0.360273 0.982291
vt 0.985273 0.982553
vt 0.985352 0.795075
vt 0.360352 0.794814
vt 0.663028 0.811018
vt 0.663248 0.654749
vt 0.038248 0.653869
vt 0.038028 0.810140
vt 0.985352 0.795053
vt 0.812500 0.591797
vt 0.812500 0.757812
vt 0.500000 0.757812
vt 0.500000 0.591797
vt 0.812500 0.937500
vt 0.812500 0.757812
vt 1.125000 0.757812
vt 1.125000 0.937500
vt 0.812500 0.649585
vt 0.812500 -0.016431
vt 1.125000 -0.016431
vt 1.125000 0.649585
vt 0.827952 0.354489
vt 0.796712 1.026894
vt 0.484548 1.012391
vt 0.515788 0.339986
vt 0.187500 0.591797
vt 0.187500 0.757812
vt -0.125000 0.757812
vt -0.125000 0.591797
vt 0.187500 0.592969
vt 0.187500 1.266099
vt -0.125000 1.266099
vt -0.125000 0.592969
vt 0.187500 0.649585
vt 0.187500 -0.016431
vt 0.500000 -0.016431
vt 0.500000 0.649585
vt 0.187500 0.937500
vt 0.187500 0.757813
vt 0.500000 0.937500
vt 0.662808 0.967248
vt 0.037808 0.966368
vt 0.660016 -0.274382
vt 0.575528 -0.274261
vt 0.569559 0.663899
vt 0.654045 0.663174
vt 0.275278 0.250000
vt 0.275277 0.250000
vt 0.275335 0.250000
vt 0.610432 0.250000
vt 0.610327 0.250000
vt 0.610305 0.250000
vt 0.305216 0.250000
vt 0.275410 0.250000
vt 0.316101 0.666073
vt 0.322064 -0.273898
vt 0.237576 -0.273777
vt 0.231616 0.666696
vt 0.260292 0.666552
vt 0.231615 0.666798
vt 0.367702 0.250000
vt 0.453409 0.250000
vt 0.468750 0.250000
vt 0.624623 0.250000
vt 0.539222 0.250000
vt 0.453351 0.250000
vt 0.367725 0.250000
vt 0.049953 0.703438
vt 0.007904 0.750711
vt 0.007897 0.750705
vt 0.049949 0.703435
vt -0.001725 0.134412
vt 0.045728 0.093389
vt 0.624124 0.750000
vt 1.106327 0.336867
vt 1.143204 1.008986
vt 0.831173 1.026107
vt 0.794296 0.353988
vt 1.125000 0.591797
vt 0.500000 0.337109
vt 0.500000 1.010239
vt 0.187500 1.010239
vt 0.187500 0.337109
vt 0.500000 0.356616
vt 0.500000 -0.309399
vt 0.812500 -0.309399
vt 0.812500 0.356616
vt 0.516248 0.256477
vt 0.516192 0.353907
vt 0.516193 0.353911
vt 0.516193 0.353976
vt 0.516196 0.353921
vt 0.515688 1.240618
vt 0.516250 0.256477
vt 0.516252 0.256477
vt -0.125000 0.937500
vt -0.125000 0.649585
vt -0.125000 -0.016431
vt 0.145433 0.253316
vt 0.145456 0.333212
vt 0.145381 0.333455
vt 0.144800 1.237792
vt 0.624125 0.750000
vt 0.892688 0.654207
vt 0.939958 0.696260
vt 0.939957 0.696260
vt 0.892686 0.654209
vt 0.051936 1.237085
vt -0.038379 1.236382
vt -0.039714 0.251738
vt -0.039712 0.251738
vt -0.039587 0.343504
vt 0.052518 0.331045
vt 0.052569 0.252524
vt 0.786179 0.820305
vt 0.809556 0.808971
vt 0.732025 0.846534
vt 0.704682 0.790081
vt 0.481517 0.853358
vt 0.558037 0.838701
vt 0.569837 0.900308
vt 0.483020 0.879134
vt 0.481516 0.853358
vt 0.608959 0.327612
vt 0.609087 0.257268
vt 0.701923 0.258059
vt 0.701766 0.344280
vt 0.609506 0.327707
vt 0.700136 1.242033
vt 0.607297 1.241326
vt 0.885813 1.243448
vt 0.794205 1.242741
vt 0.794711 0.342724
vt 0.887438 0.345713
vt 0.794758 0.258851
vt 0.887594 0.259642
vt 0.979887 0.260429
vt 1.074298 0.261233
vt 1.074156 0.335510
vt 0.979667 0.333817
vt 1.074304 0.261233
vt 1.072420 1.244871
vt 0.976937 1.244151
vt 0.701785 0.344221
vt 0.794703 0.342724
vt 0.634560 0.824044
vt 0.654471 0.884097
vt 0.608940 0.327608
vt 0.979061 0.333886
vt 0.979622 0.333816
vt 0.887453 0.345665
vt 0.138729 0.105053
vt 0.151060 0.116023
vt 0.052529 0.331044
vt 0.053096 0.331058
vt 0.147131 0.667279
vt 0.153088 -0.273656
vt 0.069093 -0.273536
vt 0.063137 0.668244
vt 0.087920 0.668031
vt 0.147130 0.667523
vt 0.624749 0.250000
vt 0.624829 0.250000
vt 0.312500 0.250000
vt 0.281937 0.250000
vt 0.282026 0.250000
vt 0.275121 0.250000
vt 0.275188 0.250000
vt 0.275188 0.250000
vt 0.610380 0.250000
vt 0.610470 0.250000
vt 0.610389 0.250000
vt 0.305235 0.250000
vt 0.275559 0.250000
vt 0.485078 0.663676
vt 0.491039 -0.274140
vt 0.406551 -0.274019
vt 0.400590 0.664851
vt 0.400587 0.665349
vt 0.485072 0.664624
vt 0.278257 0.250000
vt 0.277798 0.250000
vt 0.277854 0.250000
vt 0.278366 0.250000
vt 0.617446 0.250000
vt 0.617521 0.250000
vt 0.617450 0.250000
vt 0.744002 -0.274503
vt 0.738029 0.662454
vt 0.822541 0.661729
vt 0.828516 -0.274624
vt 0.913029 -0.274745
vt 0.907052 0.661003
vt 0.997015 -0.274865
vt 0.991035 0.660283
vt 0.625000 0.637213
vt 0.625000 0.616380
vt 0.625000 0.637213
vt -0.098184 1.007762
vt -0.150858 0.336697
vt 0.160684 0.312243
vt 0.213358 0.983308
vt 0.500000 1.285630
vt 0.500000 0.612500
vt 0.812500 0.612500
vt 0.812500 1.285630
vt 0.500000 -0.029743
vt 0.500000 0.636273
vt 0.187500 0.636273
vt 0.187500 -0.029743
vt 1.130477 -0.016266
vt 1.119480 0.649659
vt 0.807023 0.644499
vt 0.818020 -0.021426
vt 0.625000 0.616380
vt 0.155486 0.991482
vt 0.220997 0.321548
vt 0.532014 0.351961
vt 0.466503 1.021895
vt 0.187500 -0.255220
vt 0.187500 0.410796
vt -0.125000 0.410796
vt -0.125000 -0.255220
vt 0.812500 1.004010
vt 0.812500 0.330880
vt 1.125000 0.330880
vt 1.125000 1.004010
vt 0.826710 -0.017706
vt 0.798000 0.647691
vt 0.485790 0.634220
vt 0.514500 -0.031177
vt 0.500000 0.591797
vt 0.812500 0.591797
vt 0.500000 0.937500
vt 0.187500 0.937500
vt 0.812500 0.937500
vt 0.625000 0.604166
vt 0.625000 0.604166
vt 0.000000 0.137396
vt 0.000000 0.137509
vt 0.000000 0.137558
vt 0.000000 0.137349
vt 0.000000 0.137396
vt 0.000000 0.000026
vt 0.000000 0.000027
vt 0.000000 0.125000
vt 0.000000 0.137460
vt 0.000000 0.137396
vt 0.000000 0.000026
vt 0.000000 0.000026
vt 0.342423 0.250000
vt 0.147461 0.667120
vt 0.485740 0.663365
vt 0.556668 0.664010
vt 0.274682 0.250000
vt 0.275188 0.250000
vt 0.610397 0.250000
vt 0.610342 0.250000
vt 0.275542 0.250000
vt 0.316526 0.666070
vt 0.316631 0.666019
vt 0.281847 0.250000
vt 0.281906 0.250000
vt 0.281906 0.250000
vt 0.624870 0.250000
vt 0.000000 0.137535
vt 0.000000 0.137349
vt 0.000000 0.000027
vt 0.000000 0.000028
vt -0.022788 0.668981
vt -0.016834 -0.273413
vt 0.625000 0.228880
vt 0.625000 0.210526
vt 0.625000 0.208333
vt 0.559783 0.221739
vt 0.000000 -0.002174
vt 0.625000 0.249946
vt 0.625000 0.249946
vt 0.625000 0.249886
vt 0.625000 0.249916
vt 0.625000 0.249927
vt 0.625000 0.249932
vt 0.625000 0.249936
vt 0.625000 0.249938
vt 0.625000 0.249940
vt 0.625000 0.249941
vt 0.625000 0.249943
vt 0.625000 0.249944
vt 0.625000 0.249945
vt -0.493567 0.127684
vt -0.342787 0.127684
vt -0.645221 0.127684
vt -0.644821 0.127684
vt -0.538565 0.127684
vt -0.645221 0.127684
vt -0.645221 0.127684
vt -0.645221 0.127684
vt -0.645221 0.127684
vt -0.645221 0.127684
vt 0.031424 0.696285
vt 0.037734 0.692893
vt 0.038423 0.699408
vt 0.008121 0.747759
vt 0.003044 0.751236
vt 0.000583 0.749936
vt 0.002052 0.747154
vt 0.144995 0.825329
vt 0.148181 0.816387
vt 0.232734 0.836000
vt 0.230391 0.845895
vt 0.249788 0.756270
vt 0.247883 0.766247
vt 0.169373 0.751708
vt 0.172279 0.742616
vt 0.171743 0.742233
vt 0.330947 0.772201
vt 0.329849 0.782773
vt 0.321266 0.856954
vt 0.319965 0.867232
vt 0.070562 0.788368
vt 0.100201 0.724014
vt 0.103350 0.715610
vt 0.103890 0.715657
vt 0.103182 0.715706
vt 0.074703 0.780346
vt 0.414353 0.869496
vt 0.416349 0.773117
vt 0.416284 0.784021
vt 0.415884 0.773232
vt 0.416354 0.773177
vt 0.414676 0.858750
vt 0.510172 0.862263
vt 0.509772 0.873052
vt 0.503545 0.784352
vt 0.503576 0.773392
vt 0.503587 0.773392
vt 0.504748 0.857712
vt 0.419788 0.854283
vt 0.420897 0.789175
vt 0.498587 0.789570
vt 0.334112 0.787862
vt 0.411062 0.789298
vt 0.409841 0.853965
vt 0.325822 0.852446
vt 0.238845 0.833754
vt 0.252336 0.771721
vt 0.324618 0.786958
vt 0.316972 0.850739
vt 0.242226 0.770333
vt 0.228936 0.830759
vt 0.153166 0.813470
vt 0.172758 0.756527
vt 0.163846 0.754637
vt 0.145824 0.809649
vt 0.080170 0.779054
vt 0.102911 0.728591
vt 0.040053 0.703432
vt 0.095134 0.726664
vt 0.073201 0.774547
vt 0.013061 0.746718
vt 0.169373 0.751708
vt 0.329849 0.782773
vt 0.416284 0.784021
vt 0.414676 0.858750
vt 0.504571 0.785021
vt 0.504241 0.784743
vt 0.505493 0.812809
vt 0.506194 0.814214
vt 0.625000 0.724059
vt 0.625000 0.723990
vt 0.625000 0.727602
vt 0.625000 0.727558
vt 0.625000 0.733943
vt 0.625000 0.749997
vt 0.625000 0.708335
vt 0.625000 0.708336
vt 0.625000 0.723216
vt 0.625000 0.749999
vt 0.625000 0.738244
vt 0.625000 0.727560
vt 0.625000 0.727604
vt 0.625000 0.723992
vt 0.625000 0.724060
vt 0.695657 0.849410
vt 0.693339 0.839323
vt 0.779206 0.809447
vt 0.782482 0.819041
vt 0.757288 0.741965
vt 0.677293 0.765700
vt 0.675519 0.755189
vt 0.674987 0.755403
vt 0.754410 0.732133
vt 0.833950 0.719690
vt 0.754498 0.732268
vt 0.830629 0.710523
vt 0.861515 0.781541
vt 0.865300 0.790269
vt 0.840096 0.799328
vt 0.840116 0.799386
vt 0.602010 0.860817
vt 0.591910 0.775100
vt 0.590742 0.764329
vt 0.591251 0.764327
vt 0.590694 0.764281
vt 0.505306 0.784464
vt 0.504136 0.773588
vt 0.507492 0.873015
vt 0.506112 0.862331
vt 0.600680 0.850171
vt 0.935943 0.745383
vt 0.922610 0.753953
vt 0.922580 0.753906
vt 0.865893 0.789805
vt 0.899608 0.684489
vt 0.895020 0.676615
vt 0.895545 0.676510
vt 0.930975 0.737877
vt 0.993144 0.698150
vt 0.998632 0.701160
vt 0.957825 0.653127
vt 0.895696 0.676601
vt 0.957876 0.646632
vt 0.830149 0.710956
vt 0.988172 0.697982
vt 0.931967 0.732178
vt 0.905265 0.687108
vt 0.956946 0.657322
vt 0.839793 0.721589
vt 0.897797 0.689567
vt 0.925905 0.736782
vt 0.862650 0.775302
vt 0.782762 0.802937
vt 0.764398 0.745302
vt 0.831387 0.724744
vt 0.855952 0.779773
vt 0.753227 0.747771
vt 0.773182 0.807352
vt 0.696754 0.832892
vt 0.683450 0.769025
vt 0.673445 0.770830
vt 0.687915 0.835889
vt 0.604368 0.844905
vt 0.597614 0.778398
vt 0.510236 0.788955
vt 0.587921 0.780176
vt 0.595543 0.847103
vt 0.510444 0.857027
vt 0.677293 0.765700
vt 0.779206 0.809447
vt 0.693339 0.839323
vt 0.505306 0.784465
vt 0.591910 0.775100
vt 0.600680 0.850171
vt 0.833950 0.719690
vt 0.899608 0.684489
vt 0.957825 0.653127
vt 0.999079 0.701154
vt 0.965246 0.649868
vt 0.999092 0.696958
s 1
usemtl concrete.002
f 419/1/1 173/2/2 420/3/3
f 278/4/3 290/5/3 256/6/4 419/1/5 420/3/3
f 282/7/6 211/8/6 103/9/6 270/10/6
f 271/11/7 266/12/8 4/13/9 5/14/7
f 152/15/7 118/16/7 119/17/10 150/18/11
f 232/9/12 233/19/13 64/20/14 30/9/12
f 284/21/6 223/9/6 101/9/6 272/10/6
f 211/8/15 212/19/16 121/20/17 103/9/15
f 286/10/6 232/9/6 30/9/6 273/10/6
f 422/22/18 65/20/19 101/9/20 223/9/20 221/19/21 360/20/22 361/23/23 421/24/23
f 361/23/23 422/22/24 421/24/23
f 65/20/19 422/22/18 423/20/25
f 361/23/23 360/20/26 423/20/27 422/22/24
f 197/25/28 199/26/29 70/20/30 137/9/31
f 280/10/6 197/25/6 137/9/6 269/10/6
f 279/34/3 267/35/3 70/36/30 199/37/29
f 25/38/7 152/15/7 150/18/11 133/39/7
f 363/40/32 358/41/33 365/42/34
f 119/17/10 362/43/32 364/44/35
f 362/43/32 119/17/10 118/16/32 155/45/32 149/45/36 358/41/33 363/40/32 365/42/37 364/44/35
f 287/46/6 244/8/6 157/9/6 274/47/6
f 173/20/2 427/48/38 428/20/38
f 427/48/38 173/20/2 157/9/38 244/8/38 245/49/39 428/20/40
f 190/20/41 175/9/1 255/9/1 256/20/4 429/20/42 430/50/43
f 190/20/41 430/50/43 429/20/44
f 289/51/6 255/9/6 175/9/6 275/10/6
f 431/52/3 65/53/19 423/54/25
f 360/55/26 366/56/3 431/52/3 423/54/27
f 360/55/22 221/57/21 283/58/3 277/59/3 366/56/3
f 265/60/35 275/10/32 175/9/32 190/20/41
f 281/67/3 268/68/3 121/69/17 212/70/16
f 377/181/3 279/34/3 199/37/29 378/182/51
f 378/182/52 4/183/9 266/184/8 377/181/3
f 271/11/6 5/14/6 197/185/6 280/186/6
f 379/187/53 4/20/9 378/19/52
f 378/19/51 199/26/29 197/25/28 5/9/54 4/20/9 379/187/53
f 267/35/3 281/67/3 212/70/16 70/36/30
f 137/9/15 70/20/30 212/19/16 211/8/15
f 269/10/6 137/9/6 211/8/6 282/7/6
f 268/68/3 283/58/3 221/57/21 121/69/17
f 103/9/20 121/20/17 221/19/21 223/9/20
f 270/10/6 103/9/6 223/9/6 284/21/6
f 272/10/6 101/9/6 232/9/6 286/10/6
f 101/9/12 65/20/19 233/19/13 232/9/12
f 30/9/38 64/20/14 245/49/39 244/8/38
f 273/10/6 30/9/6 244/8/6 287/46/6
f 274/47/6 157/9/6 255/9/6 289/51/6
f 256/20/4 441/216/1 419/20/5
f 157/9/1 173/20/2 419/20/1 441/216/1 256/20/4 255/9/1
f 265/217/35 190/218/41 429/219/44 442/220/3
f 429/219/42 256/6/4 290/5/3 442/220/3
f 165/84/6 274/47/6 289/51/6 257/84/6
f 173/2/2 428/228/38 445/229/3 420/3/3
f 445/229/3 428/228/40 245/230/39 288/231/3 278/4/3 420/3/3
f 47/84/6 273/10/6 287/46/6 243/84/6
f 84/84/6 272/10/6 286/10/6 235/93/6
f 382/232/3 285/233/3 233/234/13 65/53/19 431/52/3 446/235/3
f 431/52/3 366/56/3 446/235/3
f 366/56/3 277/59/3 438/236/3 446/235/3
f 111/84/6 270/10/6 284/21/6 222/91/6
f 126/84/6 269/10/6 282/7/6 210/91/6
f 16/84/6 271/21/6 280/10/6 201/101/6
f 233/234/13 285/233/3 276/259/3 64/260/14
f 180/106/46 183/84/32 275/10/32 265/60/35
f 257/84/6 289/51/6 275/10/6 183/84/6
f 243/84/6 287/46/6 274/47/6 165/84/6
f 245/230/39 64/260/14 276/259/3 288/231/3
f 201/101/6 280/10/6 269/10/6 126/84/6
f 235/93/6 286/10/6 273/10/6 47/84/6
f 222/91/6 284/21/6 272/10/6 84/84/6
f 16/265/7 13/266/45 266/12/8 271/11/7
f 210/91/6 282/7/6 270/10/6 111/84/6
f 75/18/7 87/39/7 376/39/7 375/18/7
f 27/385/3 32/18/3 14/386/3 7/386/3
f 413/39/1 412/387/1 104/39/1 95/39/1 20/39/1 363/39/1 365/387/1
f 40/18/3 43/385/3 24/386/3 72/386/3
f 54/18/3 32/18/3 27/385/3 43/18/3 40/18/3 35/18/3 62/18/3
f 27/385/3 11/388/3 43/389/3
f 364/390/7 362/391/7 3/17/7 81/17/7 75/18/7 375/18/7 373/392/7 398/393/7 399/394/7 367/395/7 368/396/7 400/397/7 401/398/7 407/399/7 408/400/7 414/401/7 415/402/7
f 93/45/32 81/17/32 3/17/32 20/39/32 95/39/32
f 374/403/31 376/404/31 87/39/31 86/39/31 416/405/31 397/406/31 396/407/31
f 371/408/15 416/405/15 86/39/15 49/39/15 418/405/15 370/405/15 369/405/15 372/409/15
f 14/386/3 32/18/3 54/18/3 99/386/3
f 404/409/20 418/405/20 49/39/20 60/39/20 417/405/20 405/405/20
f 99/386/3 54/18/3 62/18/3 100/386/3
f 417/405/12 60/39/12 102/39/12 410/405/12 409/410/12 403/411/12 402/409/12
f 100/386/3 62/18/3 35/18/3 68/386/3
f 102/39/38 104/39/38 412/405/38 411/405/38 406/412/38 410/405/38
f 68/386/3 35/18/3 40/18/3 72/386/3
f 11/388/58 27/385/58 75/18/58 81/17/58
f 7/386/59 14/386/59 86/39/59 87/39/59
f 43/389/60 11/388/60 81/17/60 93/45/60
f 27/385/58 7/386/58 87/39/58 75/18/58
f 24/386/60 43/385/60 93/18/60 95/39/60
f 14/386/61 99/386/61 49/39/61 86/39/61
f 99/386/62 100/386/62 60/39/62 49/39/62
f 100/386/63 68/386/63 102/39/63 60/39/63
f 68/386/64 72/386/64 104/39/64 102/39/64
f 72/386/65 24/386/65 95/39/65 104/39/65
f 377/413/66 389/414/66 163/415/66 164/416/66 107/417/66 379/418/66 378/419/66
f 120/420/67 189/421/67 179/422/67 115/423/67
f 391/424/68 185/425/68 187/426/68 393/427/68 387/428/68
f 390/429/69 182/430/69 185/425/69 391/424/69
f 115/423/70 179/422/70 181/431/70 113/432/70
f 189/421/71 120/420/71 116/433/71
f 187/426/72 193/434/72 395/435/72 394/436/72
f 395/435/73 193/434/73 163/415/73 389/414/73 388/437/73
f 107/417/74 164/416/74 191/438/74 116/433/74
f 129/439/75 113/432/75 181/431/75
f 392/440/76 198/441/76 182/430/76 384/442/76 383/443/76
f 129/439/77 195/444/77 132/445/77 135/446/77
f 449/447/78 198/441/79 392/440/79 380/448/79 437/449/80
f 187/426/72 394/436/72 393/427/72
f 384/442/76 182/430/76 390/429/76
f 189/421/71 116/433/71 191/438/71
f 195/444/75 129/439/75 181/431/75
f 196/450/3 176/451/3 174/452/3 200/453/3
f 110/454/3 127/455/3 141/456/3 148/457/3
f 161/458/3 156/459/3 170/460/3 172/461/3
f 151/462/3 147/463/3 138/464/3 136/465/3
f 154/466/3 159/467/3 169/468/3 166/469/3
f 142/470/3 123/471/3 153/472/3 145/473/3
f 151/462/81 136/465/81 187/474/81 185/425/81
f 138/464/82 147/463/82 179/422/82 189/421/82
f 142/470/83 145/473/83 164/416/83 163/415/83
f 147/463/84 151/462/84 185/425/84 179/422/84
f 136/465/85 138/464/85 189/421/85 187/474/85
f 123/471/86 142/470/86 163/415/86 193/434/86
f 145/473/87 153/472/87 191/438/87 164/416/87
f 153/472/88 123/471/88 193/434/88 191/438/88
f 110/454/89 148/457/89 181/431/89 182/475/89
f 127/455/90 110/454/90 182/475/90 198/476/90
f 141/456/91 127/455/91 198/476/91 195/477/91
f 148/457/92 141/456/92 195/477/92 181/431/92
f 161/458/93 172/461/93 181/431/93 179/422/93
f 170/460/94 156/459/94 185/425/94 182/475/94
f 156/459/95 161/458/95 179/422/95 185/425/95
f 159/467/96 154/466/96 187/474/96 189/421/96
f 166/469/97 169/468/97 191/438/97 193/434/97
f 176/451/98 196/450/98 132/445/98 195/477/98
f 450/478/99 200/453/100 174/452/100 198/476/100 449/447/78 451/479/101
f 172/461/102 170/460/102 182/475/102 181/431/102
f 169/468/103 159/467/103 189/421/103 191/438/103
f 154/466/104 166/469/104 193/434/104 187/474/104
f 174/452/105 176/451/105 195/477/105 198/476/105
f 196/450/106 200/453/106 450/478/99 453/480/107 452/481/108 132/445/106
f 135/20/109 132/20/109 452/482/108 454/483/110 455/484/111 446/485/112 366/486/109 360/487/109 361/487/109
f 437/488/80 436/83/113 57/83/113 451/489/101 449/489/78
f 453/490/107 59/20/114 1/20/114 421/491/114 422/491/114 423/20/114 431/492/114 446/493/112 455/494/111 454/495/110 452/496/108
f 15/497/115 83/498/115 73/499/115 8/500/115
f 79/501/116 82/502/116 435/503/116 424/504/116 426/505/116
f 77/506/117 79/501/117 426/505/117 425/507/117 440/508/117
f 8/500/118 73/499/118 76/509/118 445/510/118 428/511/118 427/512/118
f 10/513/119 83/498/119 15/497/119
f 82/502/120 88/514/120 434/515/120 432/516/120
f 433/517/121 434/515/121 88/514/121 57/518/121 436/519/121
f 1/520/122 59/521/122 85/522/122 10/513/122
f 445/510/123 76/509/123 23/523/123 441/524/123 419/525/123 420/526/123
f 94/527/124 77/506/124 448/528/124 447/529/124
f 23/523/1 90/530/1 28/531/1 29/532/1
f 26/533/125 94/527/125 447/529/125 444/534/125 443/535/125
f 82/502/120 432/516/120 435/503/120
f 77/506/124 440/508/124 439/536/124 448/528/124
f 85/522/119 83/498/119 10/513/119
f 23/523/123 76/509/123 90/530/123
f 91/537/3 71/538/3 69/539/3 96/540/3
f 6/541/3 21/542/3 36/543/3 44/544/3
f 55/545/3 52/546/3 66/547/3 67/548/3
f 46/549/3 41/550/3 33/551/3 31/552/3
f 50/553/3 53/554/3 63/555/3 61/556/3
f 38/557/3 17/558/3 48/559/3 39/560/3
f 46/549/126 31/552/126 82/561/126 79/501/126
f 33/551/127 41/550/127 73/562/127 83/563/127
f 57/564/128 38/557/128 39/560/128 59/521/128 453/480/107 450/478/99 451/479/101
f 41/550/129 46/549/129 79/501/129 73/562/129
f 31/552/130 33/551/130 83/563/130 82/561/130
f 17/558/131 38/557/131 57/564/131 88/565/131
f 39/560/132 48/559/132 85/566/132 59/521/132
f 48/559/133 17/558/133 88/565/133 85/566/133
f 6/541/134 44/544/134 76/509/134 77/567/134
f 21/542/135 6/541/135 77/567/135 94/568/135
f 36/543/136 21/542/136 94/568/136 90/530/136
f 44/544/137 36/543/137 90/530/137 76/509/137
f 55/545/138 67/548/138 76/509/138 73/562/138
f 66/547/139 52/546/139 79/501/139 77/567/139
f 52/546/140 55/545/140 73/562/140 79/501/140
f 53/554/141 50/553/141 82/561/141 83/563/141
f 61/556/142 63/555/142 85/566/142 88/565/142
f 71/538/143 91/537/143 28/531/143 90/530/143
f 96/540/144 69/539/144 94/568/144 26/569/144
f 67/548/145 66/547/145 77/567/145 76/509/145
f 63/555/146 53/554/146 83/563/146 85/566/146
f 50/553/147 61/556/147 88/565/147 82/561/147
f 69/539/148 71/538/148 90/530/148 94/568/148
f 91/537/149 96/540/149 26/569/149 28/531/149
f 430/570/32 29/532/32 28/531/32 26/533/32 443/535/32 442/571/32 429/572/32
usemtl asphalt_blank.002
f 25/71/7 133/72/7 2/73/7 22/74/7
f 320/75/7 321/76/7 9/77/7 19/78/7
f 294/79/7 295/80/7 12/81/7 18/82/7
f 18/82/7 12/81/7 13/83/45 16/84/7
f 335/85/3 205/86/3 134/86/3 322/87/3
f 309/88/6 207/89/6 125/82/6 296/90/6
f 215/82/6 210/91/6 111/84/6 112/82/6
f 226/92/6 222/91/6 84/84/6 80/82/6
f 339/75/6 228/78/6 78/78/6 324/75/6
f 237/92/6 235/93/6 47/84/6 51/82/6
f 311/94/6 215/82/6 112/82/6 297/95/6
f 337/96/6 216/97/6 114/78/6 323/75/6
f 341/98/6 239/99/6 56/78/6 326/75/6
f 313/95/6 226/92/6 80/82/6 298/90/6
f 315/100/6 237/92/6 51/82/6 299/88/6
f 207/89/6 201/101/6 126/84/6 125/82/6
f 308/102/3 204/77/3 131/77/3 300/102/3
f 334/96/6 206/78/6 124/78/6 325/75/6
f 343/103/6 249/78/6 168/78/6 327/75/6
f 250/89/6 243/84/6 165/84/6 167/82/6
f 317/79/6 250/89/6 167/82/6 301/88/6
f 319/79/6 260/89/6 184/82/6 302/95/6
f 345/96/6 259/78/6 186/78/6 328/75/6
f 344/104/3 263/86/3 146/86/3 330/104/3
f 260/89/6 257/84/6 183/84/6 184/82/6
f 318/102/3 262/77/3 177/77/3 304/102/3
f 261/74/6 188/74/6 155/45/6 118/16/6 152/15/6 25/38/6 22/74/6 209/74/6 122/74/6 217/74/6 117/74/6 227/74/6 74/74/6 238/105/6 58/74/6 248/74/6 171/74/6
f 184/82/32 183/84/32 180/106/46 178/107/32 304/108/32 302/95/32
f 320/75/6 19/78/6 206/78/6 334/96/6
f 295/80/3 9/77/3 204/77/3 308/102/3
f 18/82/6 16/84/6 201/101/6 207/89/6
f 294/79/6 18/82/6 207/89/6 309/88/6
f 321/104/3 2/86/3 205/86/3 335/85/3
f 325/75/6 124/78/6 216/97/6 337/96/6
f 296/90/6 125/82/6 215/82/6 311/94/6
f 125/82/6 126/84/6 210/91/6 215/82/6
f 297/95/6 112/82/6 226/92/6 313/95/6
f 323/75/6 114/78/6 228/78/6 339/75/6
f 112/82/6 111/84/6 222/91/6 226/92/6
f 298/90/6 80/82/6 237/92/6 315/100/6
f 324/75/6 78/78/6 239/99/6 341/98/6
f 80/82/6 84/84/6 235/93/6 237/92/6
f 299/88/6 51/82/6 250/89/6 317/79/6
f 51/82/6 47/84/6 243/84/6 250/89/6
f 326/75/6 56/78/6 249/78/6 343/103/6
f 303/102/3 158/77/3 262/77/3 318/102/3
f 167/82/6 165/84/6 257/84/6 260/89/6
f 329/104/3 143/86/3 263/86/3 344/104/3
f 327/75/6 168/78/6 259/78/6 345/96/6
f 301/88/6 167/82/6 260/89/6 319/79/6
f 168/78/6 301/88/6 319/79/6 259/78/6
f 160/309/3 303/310/3 318/310/3 264/311/3
f 56/78/6 299/88/6 317/79/6 249/78/6
f 78/78/6 298/90/6 315/100/6 239/99/6
f 114/78/6 297/95/6 313/95/6 228/78/6
f 124/78/6 296/90/6 311/94/6 216/97/6
f 19/78/6 294/79/6 309/88/6 206/78/6
f 12/309/3 295/328/3 308/310/3 208/311/3
f 186/78/32 302/95/32 304/108/32 177/77/32 330/76/32 328/75/32
f 264/311/3 318/310/3 304/310/3 178/309/3
f 259/78/6 319/79/6 302/95/6 186/78/6
f 249/78/6 317/79/6 301/88/6 168/78/6
f 208/311/3 308/310/3 300/310/3 130/309/3
f 239/99/6 315/100/6 299/88/6 56/78/6
f 228/78/6 313/95/6 298/90/6 78/78/6
f 216/97/6 311/94/6 297/95/6 114/78/6
f 206/78/6 309/88/6 296/90/6 124/78/6
f 19/78/7 9/77/7 295/80/7 294/79/7
f 188/74/32 328/75/32 330/76/32 146/73/32 149/45/36 155/45/32
f 171/74/6 327/75/6 345/96/6 261/74/6
f 158/77/3 329/76/3 344/76/3 262/77/3
f 58/74/6 326/75/6 343/103/6 248/74/6
f 74/74/6 324/75/6 341/98/6 238/105/6
f 117/74/6 323/75/6 339/75/6 227/74/6
f 122/74/6 325/75/6 337/96/6 217/74/6
f 9/77/3 321/76/3 335/350/3 204/77/3
f 22/74/6 320/75/6 334/96/6 209/74/6
f 262/77/3 344/76/3 330/76/3 177/77/3
f 261/74/6 345/96/6 328/75/6 188/74/6
f 248/74/6 343/103/6 327/75/6 171/74/6
f 209/74/6 334/96/6 325/75/6 122/74/6
f 238/105/6 341/98/6 326/75/6 58/74/6
f 217/74/6 337/96/6 323/75/6 117/74/6
f 227/74/6 339/75/6 324/75/6 74/74/6
f 204/77/3 335/350/3 322/351/3 131/77/3
f 22/74/7 2/73/7 321/76/7 320/75/7
usemtl asphalt_top_side.002
f 288/27/3 276/28/3 424/29/3 426/30/3 425/31/3
f 45/32/3 246/33/3 425/31/3 426/30/3 424/29/3
f 276/28/3 285/61/3 433/62/3 434/63/3 432/64/3 435/65/3 424/29/3
f 234/66/3 45/32/3 424/29/3 435/65/3 432/64/3 434/63/3 433/62/3
f 213/109/3 218/110/3 108/111/3 109/112/3
f 234/109/3 240/110/3 42/111/3 45/112/3
f 224/113/3 229/110/3 92/114/3 89/115/3
f 202/116/3 208/117/3 130/111/3 128/112/3
f 203/118/3 139/119/3 134/120/3 205/121/3
f 214/119/3 192/119/3 105/120/3 219/120/3
f 225/119/3 140/119/3 98/120/3 230/120/3
f 236/119/3 194/119/3 34/120/3 241/120/3
f 247/119/3 144/119/3 143/120/3 251/120/3
f 254/119/3 149/119/3 146/120/3 263/120/3
f 246/122/3 252/110/3 160/111/3 162/112/3
f 258/113/3 264/110/3 178/114/3 180/115/3
f 133/154/3 203/118/3 205/121/3 2/155/3
f 194/156/3 236/157/3 359/158/47 348/159/48
f 370/160/3 350/161/3 369/162/3
f 119/163/10 368/164/3 367/165/3
f 368/164/3 292/166/3 357/167/49 370/160/3 369/162/3 367/165/3
f 350/168/3 192/169/3 214/170/3 371/171/3 372/172/3
f 371/171/3 356/173/3 372/172/3
f 353/174/50 351/175/3 150/176/11 119/17/10 373/177/3 375/178/3 376/179/3 374/180/3
f 374/180/3 376/179/3 375/178/3 373/177/3
f 13/115/3 12/114/3 208/117/3 202/116/3
f 139/119/3 214/119/3 219/120/3 134/120/3
f 128/115/3 130/114/3 218/110/3 213/109/3
f 192/119/3 225/119/3 230/120/3 105/120/3
f 109/112/3 108/111/3 229/110/3 224/113/3
f 140/119/3 236/119/3 241/120/3 98/120/3
f 89/115/3 92/114/3 240/110/3 234/109/3
f 285/61/3 382/201/3 381/202/3 437/203/3 436/204/3 433/62/3
f 380/205/3 89/206/3 234/66/3 433/62/3 436/204/3 437/203/3
f 438/207/3 277/208/3 380/205/3 437/203/3
f 45/115/3 42/114/3 252/110/3 246/122/3
f 194/119/3 247/119/3 251/120/3 34/120/3
f 278/212/3 288/27/3 425/31/3 440/213/3 439/214/3
f 246/33/3 162/215/3 439/214/3 440/213/3 425/31/3
f 162/112/3 160/111/3 264/110/3 258/113/3
f 144/119/3 254/119/3 263/120/3 143/120/3
f 258/221/3 180/222/46 265/223/35 442/224/3 443/225/3 444/226/3
f 442/224/3 290/227/3 444/226/3 443/225/3
f 383/237/3 283/238/3 268/239/3 385/240/3 384/241/3
f 385/240/3 109/242/3 224/243/3 383/237/3 384/241/3
f 128/244/3 213/245/3 386/246/3 387/247/3
f 281/248/3 267/249/3 387/247/3 386/246/3
f 279/250/3 377/251/3 389/252/3 388/253/3
f 389/252/3 377/251/3 266/254/8 13/255/45 202/256/3 388/253/3
f 386/246/3 213/245/3 109/242/3 385/240/3 390/257/3 391/258/3
f 390/257/3 385/240/3 268/239/3 281/248/3 386/246/3 391/258/3
f 392/261/3 383/237/3 224/243/3 89/206/3 380/205/3
f 277/208/3 283/238/3 383/237/3 392/261/3 380/205/3
f 394/262/3 395/263/3 388/253/3 202/256/3 128/244/3 387/247/3 393/264/3
f 267/249/3 279/250/3 388/253/3 395/263/3 394/262/3 393/264/3 387/247/3
f 162/215/3 258/221/3 444/226/3 447/267/3 448/268/3 439/214/3
f 290/227/3 278/212/3 439/214/3 448/268/3 447/267/3 444/226/3
f 397/269/3 139/270/3 203/271/3 353/272/50 396/273/3
f 396/273/3 354/274/3 397/269/3
f 398/275/3 119/17/10 399/276/3
f 398/275/3 399/276/3 293/277/3 356/278/3 354/279/3
f 359/280/47 402/281/3 403/282/3
f 400/283/3 119/284/10 401/285/3
f 401/285/3 291/286/3 403/282/3 402/281/3 349/287/3 400/283/3
f 405/288/3 140/289/3 225/290/3 404/291/3
f 357/292/49 349/293/3 405/288/3 404/291/3
f 406/294/3 352/295/55 348/296/48 409/297/3 410/294/3
f 407/298/3 119/299/10 408/300/3
f 408/300/3 406/294/3 410/294/3 409/297/3 407/298/3
f 247/301/3 352/302/55 347/303/56 144/304/3
f 254/305/3 144/304/3 347/303/56 355/306/57
f 149/307/36 254/305/3 355/306/57 358/308/33
f 413/352/3 355/353/57 347/354/56 411/355/3 412/356/3
f 119/45/10 415/357/3 414/358/3
f 412/356/3 411/355/3 346/359/3 414/358/3 415/357/3 413/352/3
f 358/360/33 355/353/57 413/352/3 365/361/34
f 119/45/10 364/362/35 415/363/3
f 415/363/3 364/362/35 365/361/37 413/352/3
f 353/174/50 374/180/3 396/364/3
f 119/17/10 398/275/3 373/177/3
f 398/275/3 354/279/3 396/364/3 374/180/3 373/177/3
f 371/171/3 214/170/3 139/270/3 397/269/3 416/365/3
f 416/365/3 397/269/3 354/274/3 356/173/3 371/171/3
f 417/366/3 402/367/3 359/158/47 236/157/3 140/289/3 405/288/3
f 405/288/3 349/293/3 402/367/3 417/366/3
f 348/368/48 359/280/47 403/282/3 409/369/3
f 119/284/10 407/370/3 401/285/3
f 403/282/3 291/286/3 401/285/3 407/370/3 409/369/3
f 368/164/3 119/163/10 400/371/3
f 349/372/3 357/167/49 292/166/3 368/164/3 400/371/3
f 404/291/3 225/290/3 192/169/3 350/168/3 370/373/3 418/374/3
f 418/374/3 370/373/3 357/292/49 404/291/3
f 348/159/48 352/302/55 247/301/3 194/156/3
f 350/375/3 372/376/3 369/377/3
f 119/17/10 367/378/3 399/276/3
f 372/376/3 356/278/3 293/277/3 399/276/3 367/378/3 369/377/3
f 347/354/56 352/379/55 406/380/3 411/355/3
f 119/45/10 414/381/3 408/382/3
f 346/359/3 411/355/3 406/380/3 408/382/3 414/381/3
f 351/383/3 353/272/50 203/271/3 133/384/3
usemtl ashpalt_ylw_solid.001
f 310/123/3 220/124/3 106/125/3 305/126/3
f 314/127/3 242/128/3 37/129/3 307/130/3
f 340/131/3 241/132/3 34/133/3 332/134/3
f 336/135/3 219/136/3 105/137/3 333/138/3
f 312/139/3 231/140/3 97/141/3 306/142/3
f 338/143/3 230/144/3 98/145/3 331/146/3
f 342/147/3 251/148/3 143/149/3 329/150/3
f 316/151/3 253/152/3 158/125/3 303/153/3
f 322/188/3 134/189/3 219/190/3 336/191/3
f 300/192/3 131/129/3 220/124/3 310/123/3
f 333/193/3 105/194/3 230/195/3 338/196/3
f 305/126/3 106/125/3 231/140/3 312/139/3
f 331/197/3 98/198/3 241/199/3 340/200/3
f 306/153/3 97/125/3 242/128/3 314/127/3
f 307/209/3 37/141/3 253/152/3 316/151/3
f 332/210/3 34/211/3 251/148/3 342/147/3
f 42/312/3 307/313/3 316/314/3 252/315/3
f 92/316/3 306/317/3 314/318/3 240/319/3
f 108/320/3 305/321/3 312/322/3 229/323/3
f 130/324/3 300/325/3 310/326/3 218/327/3
f 252/329/3 316/330/3 303/331/3 160/332/3
f 229/333/3 312/334/3 306/335/3 92/336/3
f 240/337/3 314/338/3 307/339/3 42/340/3
f 218/341/3 310/342/3 305/343/3 108/344/3
f 37/141/3 332/142/3 342/139/3 253/152/3
f 97/125/3 331/345/3 340/346/3 242/128/3
f 106/125/3 333/347/3 338/348/3 231/140/3
f 131/129/3 322/130/3 336/349/3 220/124/3
f 253/152/3 342/139/3 329/345/3 158/125/3
f 231/140/3 338/348/3 331/209/3 97/141/3
f 220/124/3 336/349/3 333/347/3 106/125/3
f 242/128/3 340/346/3 332/192/3 37/129/3
